<svg width="83" height="70" viewBox="0 0 83 70" fill="none" xmlns="http://www.w3.org/2000/svg">
<path d="M23.5 20.5H17.5M20.5 34.5H17.5M18.5 27.5H17.5M30.89 20.71L32.3 23.53C32.49 23.92 33 24.29 33.43 24.37L35.98 24.79C37.61 25.06 37.99 26.24 36.82 27.42L34.83 29.41C34.5 29.74 34.31 30.39 34.42 30.86L34.99 33.32C35.44 35.26 34.4 36.02 32.69 35L30.3 33.58C29.87 33.32 29.15 33.32 28.72 33.58L26.33 35C24.62 36.01 23.58 35.26 24.03 33.32L24.6 30.86C24.71 30.4 24.52 29.75 24.19 29.41L22.2 27.42C21.03 26.25 21.41 25.07 23.04 24.79L25.59 24.37C26.02 24.3 26.53 23.92 26.72 23.53L28.13 20.71C28.88 19.18 30.12 19.18 30.89 20.71V20.71Z" stroke="white" stroke-width="1.5" stroke-linecap="round" stroke-linejoin="round"/>
<path d="M2.34425 44.408V46.964H6.40025V48.284H2.34425V51.5H0.78425V43.1H6.91625V44.408H2.34425ZM10.5297 45.02C11.4737 45.02 12.1937 45.248 12.6897 45.704C13.1937 46.152 13.4457 46.832 13.4457 47.744V51.5H12.0297V50.72C11.8457 51 11.5817 51.216 11.2377 51.368C10.9017 51.512 10.4937 51.584 10.0137 51.584C9.53366 51.584 9.11366 51.504 8.75366 51.344C8.39366 51.176 8.11366 50.948 7.91366 50.66C7.72166 50.364 7.62566 50.032 7.62566 49.664C7.62566 49.088 7.83766 48.628 8.26166 48.284C8.69366 47.932 9.36966 47.756 10.2897 47.756H11.9457V47.66C11.9457 47.212 11.8097 46.868 11.5377 46.628C11.2737 46.388 10.8777 46.268 10.3497 46.268C9.98966 46.268 9.63366 46.324 9.28166 46.436C8.93766 46.548 8.64566 46.704 8.40566 46.904L7.81766 45.812C8.15366 45.556 8.55766 45.36 9.02966 45.224C9.50166 45.088 10.0017 45.02 10.5297 45.02ZM10.3257 50.492C10.7017 50.492 11.0337 50.408 11.3217 50.24C11.6177 50.064 11.8257 49.816 11.9457 49.496V48.752H10.3977C9.53366 48.752 9.10166 49.036 9.10166 49.604C9.10166 49.876 9.20966 50.092 9.42566 50.252C9.64166 50.412 9.94166 50.492 10.3257 50.492ZM21.2535 45.092L18.5055 51.5H16.9575L14.2095 45.092H15.7695L17.7615 49.844L19.8135 45.092H21.2535ZM24.8953 51.584C24.2473 51.584 23.6633 51.444 23.1433 51.164C22.6233 50.884 22.2153 50.496 21.9193 50C21.6313 49.496 21.4873 48.928 21.4873 48.296C21.4873 47.664 21.6313 47.1 21.9193 46.604C22.2153 46.108 22.6233 45.72 23.1433 45.44C23.6633 45.16 24.2473 45.02 24.8953 45.02C25.5513 45.02 26.1393 45.16 26.6593 45.44C27.1793 45.72 27.5833 46.108 27.8713 46.604C28.1673 47.1 28.3153 47.664 28.3153 48.296C28.3153 48.928 28.1673 49.496 27.8713 50C27.5833 50.496 27.1793 50.884 26.6593 51.164C26.1393 51.444 25.5513 51.584 24.8953 51.584ZM24.8953 50.3C25.4473 50.3 25.9033 50.116 26.2633 49.748C26.6233 49.38 26.8033 48.896 26.8033 48.296C26.8033 47.696 26.6233 47.212 26.2633 46.844C25.9033 46.476 25.4473 46.292 24.8953 46.292C24.3433 46.292 23.8873 46.476 23.5273 46.844C23.1753 47.212 22.9993 47.696 22.9993 48.296C22.9993 48.896 23.1753 49.38 23.5273 49.748C23.8873 50.116 24.3433 50.3 24.8953 50.3ZM31.1776 46.028C31.6096 45.356 32.3696 45.02 33.4576 45.02V46.448C33.3296 46.424 33.2136 46.412 33.1096 46.412C32.5256 46.412 32.0696 46.584 31.7416 46.928C31.4136 47.264 31.2496 47.752 31.2496 48.392V51.5H29.7496V45.092H31.1776V46.028ZM34.7301 45.092H36.2301V51.5H34.7301V45.092ZM35.4861 44.036C35.2141 44.036 34.9861 43.952 34.8021 43.784C34.6181 43.608 34.5261 43.392 34.5261 43.136C34.5261 42.88 34.6181 42.668 34.8021 42.5C34.9861 42.324 35.2141 42.236 35.4861 42.236C35.7581 42.236 35.9861 42.32 36.1701 42.488C36.3541 42.648 36.4461 42.852 36.4461 43.1C36.4461 43.364 36.3541 43.588 36.1701 43.772C35.9941 43.948 35.7661 44.036 35.4861 44.036ZM42.0508 51.152C41.8748 51.296 41.6588 51.404 41.4028 51.476C41.1548 51.548 40.8908 51.584 40.6108 51.584C39.9068 51.584 39.3628 51.4 38.9788 51.032C38.5948 50.664 38.4028 50.128 38.4028 49.424V46.34H37.3468V45.14H38.4028V43.676H39.9028V45.14H41.6188V46.34H39.9028V49.388C39.9028 49.7 39.9788 49.94 40.1308 50.108C40.2828 50.268 40.5028 50.348 40.7908 50.348C41.1268 50.348 41.4068 50.26 41.6308 50.084L42.0508 51.152ZM45.9538 51.584C45.3058 51.584 44.7218 51.444 44.2018 51.164C43.6818 50.884 43.2738 50.496 42.9778 50C42.6898 49.496 42.5458 48.928 42.5458 48.296C42.5458 47.664 42.6898 47.1 42.9778 46.604C43.2738 46.108 43.6818 45.72 44.2018 45.44C44.7218 45.16 45.3058 45.02 45.9538 45.02C46.6098 45.02 47.1978 45.16 47.7178 45.44C48.2378 45.72 48.6418 46.108 48.9298 46.604C49.2258 47.1 49.3738 47.664 49.3738 48.296C49.3738 48.928 49.2258 49.496 48.9298 50C48.6418 50.496 48.2378 50.884 47.7178 51.164C47.1978 51.444 46.6098 51.584 45.9538 51.584ZM45.9538 50.3C46.5058 50.3 46.9618 50.116 47.3218 49.748C47.6818 49.38 47.8618 48.896 47.8618 48.296C47.8618 47.696 47.6818 47.212 47.3218 46.844C46.9618 46.476 46.5058 46.292 45.9538 46.292C45.4018 46.292 44.9458 46.476 44.5858 46.844C44.2338 47.212 44.0578 47.696 44.0578 48.296C44.0578 48.896 44.2338 49.38 44.5858 49.748C44.9458 50.116 45.4018 50.3 45.9538 50.3ZM52.7882 51.584C52.2682 51.584 51.7602 51.516 51.2642 51.38C50.7682 51.244 50.3722 51.072 50.0762 50.864L50.6522 49.724C50.9402 49.916 51.2842 50.072 51.6842 50.192C52.0922 50.304 52.4922 50.36 52.8842 50.36C53.7802 50.36 54.2282 50.124 54.2282 49.652C54.2282 49.428 54.1122 49.272 53.8802 49.184C53.6562 49.096 53.2922 49.012 52.7882 48.932C52.2602 48.852 51.8282 48.76 51.4922 48.656C51.1642 48.552 50.8762 48.372 50.6282 48.116C50.3882 47.852 50.2682 47.488 50.2682 47.024C50.2682 46.416 50.5202 45.932 51.0242 45.572C51.5362 45.204 52.2242 45.02 53.0882 45.02C53.5282 45.02 53.9682 45.072 54.4082 45.176C54.8482 45.272 55.2082 45.404 55.4882 45.572L54.9122 46.712C54.3682 46.392 53.7562 46.232 53.0762 46.232C52.6362 46.232 52.3002 46.3 52.0682 46.436C51.8442 46.564 51.7322 46.736 51.7322 46.952C51.7322 47.192 51.8522 47.364 52.0922 47.468C52.3402 47.564 52.7202 47.656 53.2322 47.744C53.7442 47.824 54.1642 47.916 54.4922 48.02C54.8202 48.124 55.1002 48.3 55.3322 48.548C55.5722 48.796 55.6922 49.148 55.6922 49.604C55.6922 50.204 55.4322 50.684 54.9122 51.044C54.3922 51.404 53.6842 51.584 52.7882 51.584Z" fill="white"/>
</svg>
