<svg width="83" height="70" viewBox="0 0 83 70" fill="none" xmlns="http://www.w3.org/2000/svg">
<path d="M28.1111 18C24.736 18 22 21.078 22 24.875C22 31.75 30.5556 37.25 33 40C35.4444 37.25 44 31.75 44 24.875C44 21.078 41.264 18 37.8889 18C35.8849 18 34.1144 19.0736 33 20.75C31.8856 19.0736 30.1151 18 28.1111 18ZM28.1111 19.375C29.7271 19.375 31.1288 20.2319 32.0213 21.5745L33 23.0461L33.9787 21.5745C34.8712 20.2319 36.273 19.375 37.8889 19.375C40.6034 19.375 42.7778 21.8212 42.7778 24.875C42.7778 27.6708 40.9292 30.5035 38.5812 32.98C36.548 35.1244 34.505 36.7352 33 38.2168C31.495 36.7352 29.452 35.1244 27.4188 32.98C25.0708 30.5035 23.2222 27.6708 23.2222 24.875C23.2222 21.8212 25.3966 19.375 28.1111 19.375Z" fill="#F2CF8D"/>
<path d="M20.5 19H16.25H12M24.5 38.8333H12M18.5 28.9167H12" stroke="#F2CF8D" stroke-width="1.5" stroke-linecap="round" stroke-linejoin="round"/>
<path d="M2.34425 49.408V51.964H6.40025V53.284H2.34425V56.5H0.78425V48.1H6.91625V49.408H2.34425ZM10.5297 50.02C11.4737 50.02 12.1937 50.248 12.6897 50.704C13.1937 51.152 13.4457 51.832 13.4457 52.744V56.5H12.0297V55.72C11.8457 56 11.5817 56.216 11.2377 56.368C10.9017 56.512 10.4937 56.584 10.0137 56.584C9.53366 56.584 9.11366 56.504 8.75366 56.344C8.39366 56.176 8.11366 55.948 7.91366 55.66C7.72166 55.364 7.62566 55.032 7.62566 54.664C7.62566 54.088 7.83766 53.628 8.26166 53.284C8.69366 52.932 9.36966 52.756 10.2897 52.756H11.9457V52.66C11.9457 52.212 11.8097 51.868 11.5377 51.628C11.2737 51.388 10.8777 51.268 10.3497 51.268C9.98966 51.268 9.63366 51.324 9.28166 51.436C8.93766 51.548 8.64566 51.704 8.40566 51.904L7.81766 50.812C8.15366 50.556 8.55766 50.36 9.02966 50.224C9.50166 50.088 10.0017 50.02 10.5297 50.02ZM10.3257 55.492C10.7017 55.492 11.0337 55.408 11.3217 55.24C11.6177 55.064 11.8257 54.816 11.9457 54.496V53.752H10.3977C9.53366 53.752 9.10166 54.036 9.10166 54.604C9.10166 54.876 9.20966 55.092 9.42566 55.252C9.64166 55.412 9.94166 55.492 10.3257 55.492ZM21.2535 50.092L18.5055 56.5H16.9575L14.2095 50.092H15.7695L17.7615 54.844L19.8135 50.092H21.2535ZM24.8953 56.584C24.2473 56.584 23.6633 56.444 23.1433 56.164C22.6233 55.884 22.2153 55.496 21.9193 55C21.6313 54.496 21.4873 53.928 21.4873 53.296C21.4873 52.664 21.6313 52.1 21.9193 51.604C22.2153 51.108 22.6233 50.72 23.1433 50.44C23.6633 50.16 24.2473 50.02 24.8953 50.02C25.5513 50.02 26.1393 50.16 26.6593 50.44C27.1793 50.72 27.5833 51.108 27.8713 51.604C28.1673 52.1 28.3153 52.664 28.3153 53.296C28.3153 53.928 28.1673 54.496 27.8713 55C27.5833 55.496 27.1793 55.884 26.6593 56.164C26.1393 56.444 25.5513 56.584 24.8953 56.584ZM24.8953 55.3C25.4473 55.3 25.9033 55.116 26.2633 54.748C26.6233 54.38 26.8033 53.896 26.8033 53.296C26.8033 52.696 26.6233 52.212 26.2633 51.844C25.9033 51.476 25.4473 51.292 24.8953 51.292C24.3433 51.292 23.8873 51.476 23.5273 51.844C23.1753 52.212 22.9993 52.696 22.9993 53.296C22.9993 53.896 23.1753 54.38 23.5273 54.748C23.8873 55.116 24.3433 55.3 24.8953 55.3ZM31.1776 51.028C31.6096 50.356 32.3696 50.02 33.4576 50.02V51.448C33.3296 51.424 33.2136 51.412 33.1096 51.412C32.5256 51.412 32.0696 51.584 31.7416 51.928C31.4136 52.264 31.2496 52.752 31.2496 53.392V56.5H29.7496V50.092H31.1776V51.028ZM34.7301 50.092H36.2301V56.5H34.7301V50.092ZM35.4861 49.036C35.2141 49.036 34.9861 48.952 34.8021 48.784C34.6181 48.608 34.5261 48.392 34.5261 48.136C34.5261 47.88 34.6181 47.668 34.8021 47.5C34.9861 47.324 35.2141 47.236 35.4861 47.236C35.7581 47.236 35.9861 47.32 36.1701 47.488C36.3541 47.648 36.4461 47.852 36.4461 48.1C36.4461 48.364 36.3541 48.588 36.1701 48.772C35.9941 48.948 35.7661 49.036 35.4861 49.036ZM42.0508 56.152C41.8748 56.296 41.6588 56.404 41.4028 56.476C41.1548 56.548 40.8908 56.584 40.6108 56.584C39.9068 56.584 39.3628 56.4 38.9788 56.032C38.5948 55.664 38.4028 55.128 38.4028 54.424V51.34H37.3468V50.14H38.4028V48.676H39.9028V50.14H41.6188V51.34H39.9028V54.388C39.9028 54.7 39.9788 54.94 40.1308 55.108C40.2828 55.268 40.5028 55.348 40.7908 55.348C41.1268 55.348 41.4068 55.26 41.6308 55.084L42.0508 56.152ZM45.9538 56.584C45.3058 56.584 44.7218 56.444 44.2018 56.164C43.6818 55.884 43.2738 55.496 42.9778 55C42.6898 54.496 42.5458 53.928 42.5458 53.296C42.5458 52.664 42.6898 52.1 42.9778 51.604C43.2738 51.108 43.6818 50.72 44.2018 50.44C44.7218 50.16 45.3058 50.02 45.9538 50.02C46.6098 50.02 47.1978 50.16 47.7178 50.44C48.2378 50.72 48.6418 51.108 48.9298 51.604C49.2258 52.1 49.3738 52.664 49.3738 53.296C49.3738 53.928 49.2258 54.496 48.9298 55C48.6418 55.496 48.2378 55.884 47.7178 56.164C47.1978 56.444 46.6098 56.584 45.9538 56.584ZM45.9538 55.3C46.5058 55.3 46.9618 55.116 47.3218 54.748C47.6818 54.38 47.8618 53.896 47.8618 53.296C47.8618 52.696 47.6818 52.212 47.3218 51.844C46.9618 51.476 46.5058 51.292 45.9538 51.292C45.4018 51.292 44.9458 51.476 44.5858 51.844C44.2338 52.212 44.0578 52.696 44.0578 53.296C44.0578 53.896 44.2338 54.38 44.5858 54.748C44.9458 55.116 45.4018 55.3 45.9538 55.3ZM52.7882 56.584C52.2682 56.584 51.7602 56.516 51.2642 56.38C50.7682 56.244 50.3722 56.072 50.0762 55.864L50.6522 54.724C50.9402 54.916 51.2842 55.072 51.6842 55.192C52.0922 55.304 52.4922 55.36 52.8842 55.36C53.7802 55.36 54.2282 55.124 54.2282 54.652C54.2282 54.428 54.1122 54.272 53.8802 54.184C53.6562 54.096 53.2922 54.012 52.7882 53.932C52.2602 53.852 51.8282 53.76 51.4922 53.656C51.1642 53.552 50.8762 53.372 50.6282 53.116C50.3882 52.852 50.2682 52.488 50.2682 52.024C50.2682 51.416 50.5202 50.932 51.0242 50.572C51.5362 50.204 52.2242 50.02 53.0882 50.02C53.5282 50.02 53.9682 50.072 54.4082 50.176C54.8482 50.272 55.2082 50.404 55.4882 50.572L54.9122 51.712C54.3682 51.392 53.7562 51.232 53.0762 51.232C52.6362 51.232 52.3002 51.3 52.0682 51.436C51.8442 51.564 51.7322 51.736 51.7322 51.952C51.7322 52.192 51.8522 52.364 52.0922 52.468C52.3402 52.564 52.7202 52.656 53.2322 52.744C53.7442 52.824 54.1642 52.916 54.4922 53.02C54.8202 53.124 55.1002 53.3 55.3322 53.548C55.5722 53.796 55.6922 54.148 55.6922 54.604C55.6922 55.204 55.4322 55.684 54.9122 56.044C54.3922 56.404 53.6842 56.584 52.7882 56.584Z" fill="#F2CF8D"/>
<line x1="80.5" y1="70" x2="80.5" y2="-1.09278e-07" stroke="#F2CF8D" stroke-width="5"/>
</svg>
