<svg width="24" height="24" viewBox="0 0 24 24" fill="none" xmlns="http://www.w3.org/2000/svg">
<path d="M12.6667 4.5C10.3655 4.5 8.5 6.59867 8.5 9.1875C8.5 13.875 14.3333 17.625 16 19.5C17.6667 17.625 23.5 13.875 23.5 9.1875C23.5 6.59867 21.6345 4.5 19.3333 4.5C17.967 4.5 16.7598 5.23197 16 6.375C15.2402 5.23197 14.033 4.5 12.6667 4.5ZM12.6667 5.4375C13.7684 5.4375 14.7242 6.02175 15.3327 6.93713L16 7.94055L16.6673 6.93713C17.2758 6.02176 18.2316 5.4375 19.3333 5.4375C21.1841 5.4375 22.6667 7.10533 22.6667 9.1875C22.6667 11.0937 21.4063 13.0251 19.8053 14.7136C18.4191 16.1757 17.0261 17.274 16 18.2842C14.9739 17.274 13.5809 16.1757 12.1947 14.7136C10.5937 13.0251 9.33333 11.0937 9.33333 9.1875C9.33333 7.10533 10.8159 5.4375 12.6667 5.4375Z" fill="white"/>
<path d="M15.7471 7.16073L16.2 8.12781L16.6528 7.16073C17.2123 5.96573 18.2879 5.19971 19.4812 5.19971C21.1981 5.19971 22.7 6.81405 22.7 8.94971C22.7 11.6221 21.0673 13.9372 19.3496 15.6242C18.4985 16.4602 17.6455 17.123 17.0047 17.5769C16.6848 17.8035 16.4189 17.9772 16.2342 18.0936C16.2224 18.101 16.211 18.1081 16.2 18.1151C16.1889 18.1081 16.1775 18.101 16.1657 18.0936C15.981 17.9772 15.7151 17.8035 15.3952 17.5769C14.7544 17.123 13.9014 16.4602 13.0503 15.6242C11.3326 13.9372 9.69995 11.6221 9.69995 8.94971C9.69995 6.81405 11.2018 5.19971 12.9187 5.19971C14.112 5.19971 15.1876 5.96573 15.7471 7.16073Z" stroke="white"/>
<path d="M7.62 5.5H4.56H1.5M10.5 18.5H1.5M6.18 12H1.5" stroke="white" stroke-width="1.5" stroke-linecap="round" stroke-linejoin="round"/>
</svg>
