<svg width="25" height="25" viewBox="0 0 25 25" fill="none" xmlns="http://www.w3.org/2000/svg">
<path d="M8.5 5.5H2.5M5.5 19.5H2.5M3.5 12.5H2.5M15.89 5.71L17.3 8.53C17.49 8.92 18 9.29 18.43 9.37L20.98 9.79C22.61 10.06 22.99 11.24 21.82 12.42L19.83 14.41C19.5 14.74 19.31 15.39 19.42 15.86L19.99 18.32C20.44 20.26 19.4 21.02 17.69 20L15.3 18.58C14.87 18.32 14.15 18.32 13.72 18.58L11.33 20C9.62 21.01 8.58 20.26 9.03 18.32L9.6 15.86C9.71 15.4 9.52 14.75 9.19 14.41L7.2 12.42C6.03 11.25 6.41 10.07 8.04 9.79L10.59 9.37C11.02 9.3 11.53 8.92 11.72 8.53L13.13 5.71C13.88 4.18 15.12 4.18 15.89 5.71V5.71Z" stroke="white" stroke-width="1.5" stroke-linecap="round" stroke-linejoin="round"/>
</svg>
