<svg width="35" height="35" viewBox="0 0 35 35" fill="none" xmlns="http://www.w3.org/2000/svg">
<path d="M11.8333 8.08325H3.33325M7.58325 27.9166H3.33325M4.74992 17.9999H3.33325M22.3024 8.38075L24.2999 12.3758C24.5691 12.9283 25.2916 13.4524 25.9008 13.5658L29.5133 14.1608C31.8224 14.5433 32.3608 16.2149 30.7033 17.8866L27.8841 20.7058C27.4166 21.1733 27.1474 22.0941 27.3033 22.7599L28.1108 26.2449C28.7483 28.9933 27.2749 30.0699 24.8524 28.6249L21.4666 26.6133C20.8574 26.2449 19.8374 26.2449 19.2283 26.6133L15.8424 28.6249C13.4199 30.0558 11.9466 28.9933 12.5841 26.2449L13.3916 22.7599C13.5474 22.1083 13.2783 21.1874 12.8108 20.7058L9.99158 17.8866C8.33408 16.2291 8.87242 14.5574 11.1816 14.1608L14.7941 13.5658C15.4033 13.4666 16.1258 12.9283 16.3949 12.3758L18.3924 8.38075C19.4549 6.21325 21.2116 6.21325 22.3024 8.38075V8.38075Z" stroke="#F2CF8D" stroke-width="1.5" stroke-linecap="round" stroke-linejoin="round"/>
</svg>
