<svg width="34" height="34" viewBox="0 0 34 34" fill="none" xmlns="http://www.w3.org/2000/svg">
<path d="M17.9444 6.375C14.6844 6.375 12.0417 9.34811 12.0417 13.0156C12.0417 19.6562 20.3055 24.9688 22.6667 27.625C25.0278 24.9688 33.2917 19.6562 33.2917 13.0156C33.2917 9.34811 30.6489 6.375 27.3889 6.375C25.4533 6.375 23.7431 7.41196 22.6667 9.03125C21.5902 7.41196 19.8801 6.375 17.9444 6.375ZM17.9444 7.70312C19.5053 7.70312 20.8592 8.53082 21.7213 9.82761L22.6667 11.2491L23.612 9.82761C24.4741 8.53082 25.828 7.70312 27.3889 7.70312C30.0109 7.70312 32.1111 10.0659 32.1111 13.0156C32.1111 15.7161 30.3256 18.4523 28.0576 20.8443C26.0937 22.9156 24.1203 24.4715 22.6667 25.9026C21.213 24.4715 19.2397 22.9156 17.2758 20.8443C15.0078 18.4523 13.2222 15.7161 13.2222 13.0156C13.2222 10.0659 15.3224 7.70312 17.9444 7.70312Z" fill="#F2CF8D"/>
<path d="M10.795 7.7915H6.46H2.125M14.875 26.2082H2.125M8.755 16.9998H2.125" stroke="#F2CF8D" stroke-width="1.5" stroke-linecap="round" stroke-linejoin="round"/>
</svg>
