<svg width="78" height="70" viewBox="0 0 78 70" fill="none" xmlns="http://www.w3.org/2000/svg">
<path d="M19.0574 28.1516L14.7366 32.4724M14.7791 28.1941L19.0999 32.5149" stroke="#F2CF8D" stroke-width="1.5" stroke-miterlimit="10" stroke-linecap="round" stroke-linejoin="round"/>
<path d="M24.6675 30.3333H24.6816M30.2491 30.3333H30.2633M27.4583 33.1383V33.11M27.4583 27.5567V27.5283" stroke="#F2CF8D" stroke-width="2" stroke-miterlimit="10" stroke-linecap="round" stroke-linejoin="round"/>
<path d="M23.9308 13.3333L23.9166 14.7641C23.9129 15.1373 23.762 15.4941 23.4967 15.7567C23.2314 16.0193 22.8732 16.1666 22.4999 16.1666H22.4574C21.6783 16.1666 21.0549 16.8041 21.0549 17.5833C21.0549 18.3624 21.6924 18.9999 22.4716 18.9999H23.8883M18.2499 41.6666H26.7499C33.8333 41.6666 36.6666 38.8333 36.6666 31.7499V28.9166C36.6666 21.8333 33.8333 18.9999 26.7499 18.9999H18.2499C11.1666 18.9999 8.33325 21.8333 8.33325 28.9166V31.7499C8.33325 38.8333 11.1666 41.6666 18.2499 41.6666Z" stroke="#F2CF8D" stroke-width="2" stroke-linecap="round" stroke-linejoin="round"/>
<path d="M3.23288 56.62C2.69688 56.62 2.20088 56.516 1.74488 56.308C1.29688 56.092 0.928875 55.792 0.640875 55.408L1.52888 54.34C1.99288 54.98 2.54888 55.3 3.19688 55.3C4.06888 55.3 4.50488 54.784 4.50488 53.752V49.408H1.51688V48.1H6.06488V53.668C6.06488 54.652 5.82488 55.392 5.34488 55.888C4.86488 56.376 4.16088 56.62 3.23288 56.62ZM14.313 50.092V56.5H12.885V55.684C12.645 55.972 12.345 56.196 11.985 56.356C11.625 56.508 11.237 56.584 10.821 56.584C9.965 56.584 9.289 56.348 8.793 55.876C8.305 55.396 8.061 54.688 8.061 53.752V50.092H9.561V53.548C9.561 54.124 9.689 54.556 9.945 54.844C10.209 55.124 10.581 55.264 11.061 55.264C11.597 55.264 12.021 55.1 12.333 54.772C12.653 54.436 12.813 53.956 12.813 53.332V50.092H14.313ZM22.301 53.332C22.301 53.436 22.293 53.584 22.277 53.776H17.249C17.337 54.248 17.565 54.624 17.933 54.904C18.309 55.176 18.773 55.312 19.325 55.312C20.029 55.312 20.609 55.08 21.065 54.616L21.869 55.54C21.581 55.884 21.217 56.144 20.777 56.32C20.337 56.496 19.841 56.584 19.289 56.584C18.585 56.584 17.965 56.444 17.429 56.164C16.893 55.884 16.477 55.496 16.181 55C15.893 54.496 15.749 53.928 15.749 53.296C15.749 52.672 15.889 52.112 16.169 51.616C16.457 51.112 16.853 50.72 17.357 50.44C17.861 50.16 18.429 50.02 19.061 50.02C19.685 50.02 20.241 50.16 20.729 50.44C21.225 50.712 21.609 51.1 21.881 51.604C22.161 52.1 22.301 52.676 22.301 53.332ZM19.061 51.22C18.581 51.22 18.173 51.364 17.837 51.652C17.509 51.932 17.309 52.308 17.237 52.78H20.873C20.809 52.316 20.613 51.94 20.285 51.652C19.957 51.364 19.549 51.22 19.061 51.22ZM30.1018 50.092V55.528C30.1018 57.784 28.9498 58.912 26.6458 58.912C26.0298 58.912 25.4458 58.832 24.8938 58.672C24.3418 58.52 23.8858 58.296 23.5258 58L24.1978 56.872C24.4778 57.104 24.8298 57.288 25.2538 57.424C25.6858 57.568 26.1218 57.64 26.5618 57.64C27.2658 57.64 27.7818 57.48 28.1098 57.16C28.4378 56.84 28.6018 56.352 28.6018 55.696V55.36C28.3458 55.64 28.0338 55.852 27.6658 55.996C27.2978 56.14 26.8938 56.212 26.4538 56.212C25.8458 56.212 25.2938 56.084 24.7978 55.828C24.3098 55.564 23.9218 55.196 23.6338 54.724C23.3538 54.252 23.2138 53.712 23.2138 53.104C23.2138 52.496 23.3538 51.96 23.6338 51.496C23.9218 51.024 24.3098 50.66 24.7978 50.404C25.2938 50.148 25.8458 50.02 26.4538 50.02C26.9178 50.02 27.3378 50.096 27.7138 50.248C28.0978 50.4 28.4178 50.632 28.6738 50.944V50.092H30.1018ZM26.6818 54.94C27.2498 54.94 27.7138 54.772 28.0738 54.436C28.4418 54.092 28.6258 53.648 28.6258 53.104C28.6258 52.568 28.4418 52.132 28.0738 51.796C27.7138 51.46 27.2498 51.292 26.6818 51.292C26.1058 51.292 25.6338 51.46 25.2658 51.796C24.9058 52.132 24.7258 52.568 24.7258 53.104C24.7258 53.648 24.9058 54.092 25.2658 54.436C25.6338 54.772 26.1058 54.94 26.6818 54.94ZM34.9538 56.584C34.3058 56.584 33.7218 56.444 33.2018 56.164C32.6818 55.884 32.2738 55.496 31.9778 55C31.6898 54.496 31.5458 53.928 31.5458 53.296C31.5458 52.664 31.6898 52.1 31.9778 51.604C32.2738 51.108 32.6818 50.72 33.2018 50.44C33.7218 50.16 34.3058 50.02 34.9538 50.02C35.6098 50.02 36.1978 50.16 36.7178 50.44C37.2378 50.72 37.6418 51.108 37.9298 51.604C38.2258 52.1 38.3738 52.664 38.3738 53.296C38.3738 53.928 38.2258 54.496 37.9298 55C37.6418 55.496 37.2378 55.884 36.7178 56.164C36.1978 56.444 35.6098 56.584 34.9538 56.584ZM34.9538 55.3C35.5058 55.3 35.9618 55.116 36.3218 54.748C36.6818 54.38 36.8618 53.896 36.8618 53.296C36.8618 52.696 36.6818 52.212 36.3218 51.844C35.9618 51.476 35.5058 51.292 34.9538 51.292C34.4018 51.292 33.9458 51.476 33.5858 51.844C33.2338 52.212 33.0578 52.696 33.0578 53.296C33.0578 53.896 33.2338 54.38 33.5858 54.748C33.9458 55.116 34.4018 55.3 34.9538 55.3ZM41.7882 56.584C41.2682 56.584 40.7602 56.516 40.2642 56.38C39.7682 56.244 39.3722 56.072 39.0762 55.864L39.6522 54.724C39.9402 54.916 40.2842 55.072 40.6842 55.192C41.0922 55.304 41.4922 55.36 41.8842 55.36C42.7802 55.36 43.2282 55.124 43.2282 54.652C43.2282 54.428 43.1122 54.272 42.8802 54.184C42.6562 54.096 42.2922 54.012 41.7882 53.932C41.2602 53.852 40.8282 53.76 40.4922 53.656C40.1642 53.552 39.8762 53.372 39.6282 53.116C39.3882 52.852 39.2682 52.488 39.2682 52.024C39.2682 51.416 39.5202 50.932 40.0242 50.572C40.5362 50.204 41.2242 50.02 42.0882 50.02C42.5282 50.02 42.9682 50.072 43.4082 50.176C43.8482 50.272 44.2082 50.404 44.4882 50.572L43.9122 51.712C43.3682 51.392 42.7562 51.232 42.0762 51.232C41.6362 51.232 41.3002 51.3 41.0682 51.436C40.8442 51.564 40.7322 51.736 40.7322 51.952C40.7322 52.192 40.8522 52.364 41.0922 52.468C41.3402 52.564 41.7202 52.656 42.2322 52.744C42.7442 52.824 43.1642 52.916 43.4922 53.02C43.8202 53.124 44.1002 53.3 44.3322 53.548C44.5722 53.796 44.6922 54.148 44.6922 54.604C44.6922 55.204 44.4322 55.684 43.9122 56.044C43.3922 56.404 42.6842 56.584 41.7882 56.584Z" fill="#F2CF8D"/>
<line x1="75.5" y1="70" x2="75.5" y2="-1.09278e-07" stroke="#F2CF8D" stroke-width="5"/>
</svg>
