<svg width="25" height="25" viewBox="0 0 25 25" fill="none" xmlns="http://www.w3.org/2000/svg">
<path d="M10.07 12.96L7.02002 16.01M7.05002 12.99L10.1 16.04" stroke="white" stroke-width="1.5" stroke-miterlimit="10" stroke-linecap="round" stroke-linejoin="round"/>
<path d="M14.03 14.5H14.04M17.97 14.5H17.98M16 16.48V16.46M16 12.54V12.52" stroke="white" stroke-width="2" stroke-miterlimit="10" stroke-linecap="round" stroke-linejoin="round"/>
<path d="M13.51 2.5L13.5 3.51C13.4974 3.77348 13.3908 4.02527 13.2036 4.21065C13.0163 4.39603 12.7635 4.50001 12.5 4.5H12.47C11.92 4.5 11.48 4.95 11.48 5.5C11.48 6.05 11.93 6.5 12.48 6.5H13.48M9.5 22.5H15.5C20.5 22.5 22.5 20.5 22.5 15.5V13.5C22.5 8.5 20.5 6.5 15.5 6.5H9.5C4.5 6.5 2.5 8.5 2.5 13.5V15.5C2.5 20.5 4.5 22.5 9.5 22.5Z" stroke="white" stroke-width="2" stroke-linecap="round" stroke-linejoin="round"/>
</svg>
