<svg width="35" height="35" viewBox="0 0 35 35" fill="none" xmlns="http://www.w3.org/2000/svg">
<path d="M14.0574 18.1516L9.73657 22.4724M9.77907 18.1941L14.0999 22.5149" stroke="#F2CF8D" stroke-width="1.5" stroke-miterlimit="10" stroke-linecap="round" stroke-linejoin="round"/>
<path d="M19.6675 20.3333H19.6816M25.2491 20.3333H25.2633M22.4583 23.1383V23.11M22.4583 17.5567V17.5283" stroke="#F2CF8D" stroke-width="2" stroke-miterlimit="10" stroke-linecap="round" stroke-linejoin="round"/>
<path d="M18.9308 3.33325L18.9166 4.76409C18.9129 5.13735 18.762 5.49405 18.4967 5.75667C18.2314 6.01929 17.8732 6.1666 17.4999 6.16659H17.4574C16.6783 6.16659 16.0549 6.80409 16.0549 7.58325C16.0549 8.36242 16.6924 8.99992 17.4716 8.99992H18.8883M13.2499 31.6666H21.7499C28.8333 31.6666 31.6666 28.8333 31.6666 21.7499V18.9166C31.6666 11.8333 28.8333 8.99992 21.7499 8.99992H13.2499C6.16659 8.99992 3.33325 11.8333 3.33325 18.9166V21.7499C3.33325 28.8333 6.16659 31.6666 13.2499 31.6666Z" stroke="#F2CF8D" stroke-width="2" stroke-linecap="round" stroke-linejoin="round"/>
</svg>
