<svg width="78" height="70" viewBox="0 0 78 70" fill="none" xmlns="http://www.w3.org/2000/svg">
<path d="M20.07 27.96L17.02 31.01M17.05 27.99L20.1 31.04" stroke="white" stroke-width="1.5" stroke-miterlimit="10" stroke-linecap="round" stroke-linejoin="round"/>
<path d="M24.03 29.5H24.04M27.97 29.5H27.98M26 31.48V31.46M26 27.54V27.52" stroke="white" stroke-width="2" stroke-miterlimit="10" stroke-linecap="round" stroke-linejoin="round"/>
<path d="M23.51 17.5L23.5 18.51C23.4974 18.7735 23.3908 19.0253 23.2036 19.2107C23.0163 19.396 22.7635 19.5 22.5 19.5H22.47C21.92 19.5 21.48 19.95 21.48 20.5C21.48 21.05 21.93 21.5 22.48 21.5H23.48M19.5 37.5H25.5C30.5 37.5 32.5 35.5 32.5 30.5V28.5C32.5 23.5 30.5 21.5 25.5 21.5H19.5C14.5 21.5 12.5 23.5 12.5 28.5V30.5C12.5 35.5 14.5 37.5 19.5 37.5Z" stroke="white" stroke-width="2" stroke-linecap="round" stroke-linejoin="round"/>
<path d="M3.23288 51.62C2.69688 51.62 2.20088 51.516 1.74488 51.308C1.29688 51.092 0.928875 50.792 0.640875 50.408L1.52888 49.34C1.99288 49.98 2.54888 50.3 3.19688 50.3C4.06888 50.3 4.50488 49.784 4.50488 48.752V44.408H1.51688V43.1H6.06488V48.668C6.06488 49.652 5.82488 50.392 5.34488 50.888C4.86488 51.376 4.16088 51.62 3.23288 51.62ZM14.313 45.092V51.5H12.885V50.684C12.645 50.972 12.345 51.196 11.985 51.356C11.625 51.508 11.237 51.584 10.821 51.584C9.965 51.584 9.289 51.348 8.793 50.876C8.305 50.396 8.061 49.688 8.061 48.752V45.092H9.561V48.548C9.561 49.124 9.689 49.556 9.945 49.844C10.209 50.124 10.581 50.264 11.061 50.264C11.597 50.264 12.021 50.1 12.333 49.772C12.653 49.436 12.813 48.956 12.813 48.332V45.092H14.313ZM22.301 48.332C22.301 48.436 22.293 48.584 22.277 48.776H17.249C17.337 49.248 17.565 49.624 17.933 49.904C18.309 50.176 18.773 50.312 19.325 50.312C20.029 50.312 20.609 50.08 21.065 49.616L21.869 50.54C21.581 50.884 21.217 51.144 20.777 51.32C20.337 51.496 19.841 51.584 19.289 51.584C18.585 51.584 17.965 51.444 17.429 51.164C16.893 50.884 16.477 50.496 16.181 50C15.893 49.496 15.749 48.928 15.749 48.296C15.749 47.672 15.889 47.112 16.169 46.616C16.457 46.112 16.853 45.72 17.357 45.44C17.861 45.16 18.429 45.02 19.061 45.02C19.685 45.02 20.241 45.16 20.729 45.44C21.225 45.712 21.609 46.1 21.881 46.604C22.161 47.1 22.301 47.676 22.301 48.332ZM19.061 46.22C18.581 46.22 18.173 46.364 17.837 46.652C17.509 46.932 17.309 47.308 17.237 47.78H20.873C20.809 47.316 20.613 46.94 20.285 46.652C19.957 46.364 19.549 46.22 19.061 46.22ZM30.1018 45.092V50.528C30.1018 52.784 28.9498 53.912 26.6458 53.912C26.0298 53.912 25.4458 53.832 24.8938 53.672C24.3418 53.52 23.8858 53.296 23.5258 53L24.1978 51.872C24.4778 52.104 24.8298 52.288 25.2538 52.424C25.6858 52.568 26.1218 52.64 26.5618 52.64C27.2658 52.64 27.7818 52.48 28.1098 52.16C28.4378 51.84 28.6018 51.352 28.6018 50.696V50.36C28.3458 50.64 28.0338 50.852 27.6658 50.996C27.2978 51.14 26.8938 51.212 26.4538 51.212C25.8458 51.212 25.2938 51.084 24.7978 50.828C24.3098 50.564 23.9218 50.196 23.6338 49.724C23.3538 49.252 23.2138 48.712 23.2138 48.104C23.2138 47.496 23.3538 46.96 23.6338 46.496C23.9218 46.024 24.3098 45.66 24.7978 45.404C25.2938 45.148 25.8458 45.02 26.4538 45.02C26.9178 45.02 27.3378 45.096 27.7138 45.248C28.0978 45.4 28.4178 45.632 28.6738 45.944V45.092H30.1018ZM26.6818 49.94C27.2498 49.94 27.7138 49.772 28.0738 49.436C28.4418 49.092 28.6258 48.648 28.6258 48.104C28.6258 47.568 28.4418 47.132 28.0738 46.796C27.7138 46.46 27.2498 46.292 26.6818 46.292C26.1058 46.292 25.6338 46.46 25.2658 46.796C24.9058 47.132 24.7258 47.568 24.7258 48.104C24.7258 48.648 24.9058 49.092 25.2658 49.436C25.6338 49.772 26.1058 49.94 26.6818 49.94ZM34.9538 51.584C34.3058 51.584 33.7218 51.444 33.2018 51.164C32.6818 50.884 32.2738 50.496 31.9778 50C31.6898 49.496 31.5458 48.928 31.5458 48.296C31.5458 47.664 31.6898 47.1 31.9778 46.604C32.2738 46.108 32.6818 45.72 33.2018 45.44C33.7218 45.16 34.3058 45.02 34.9538 45.02C35.6098 45.02 36.1978 45.16 36.7178 45.44C37.2378 45.72 37.6418 46.108 37.9298 46.604C38.2258 47.1 38.3738 47.664 38.3738 48.296C38.3738 48.928 38.2258 49.496 37.9298 50C37.6418 50.496 37.2378 50.884 36.7178 51.164C36.1978 51.444 35.6098 51.584 34.9538 51.584ZM34.9538 50.3C35.5058 50.3 35.9618 50.116 36.3218 49.748C36.6818 49.38 36.8618 48.896 36.8618 48.296C36.8618 47.696 36.6818 47.212 36.3218 46.844C35.9618 46.476 35.5058 46.292 34.9538 46.292C34.4018 46.292 33.9458 46.476 33.5858 46.844C33.2338 47.212 33.0578 47.696 33.0578 48.296C33.0578 48.896 33.2338 49.38 33.5858 49.748C33.9458 50.116 34.4018 50.3 34.9538 50.3ZM41.7882 51.584C41.2682 51.584 40.7602 51.516 40.2642 51.38C39.7682 51.244 39.3722 51.072 39.0762 50.864L39.6522 49.724C39.9402 49.916 40.2842 50.072 40.6842 50.192C41.0922 50.304 41.4922 50.36 41.8842 50.36C42.7802 50.36 43.2282 50.124 43.2282 49.652C43.2282 49.428 43.1122 49.272 42.8802 49.184C42.6562 49.096 42.2922 49.012 41.7882 48.932C41.2602 48.852 40.8282 48.76 40.4922 48.656C40.1642 48.552 39.8762 48.372 39.6282 48.116C39.3882 47.852 39.2682 47.488 39.2682 47.024C39.2682 46.416 39.5202 45.932 40.0242 45.572C40.5362 45.204 41.2242 45.02 42.0882 45.02C42.5282 45.02 42.9682 45.072 43.4082 45.176C43.8482 45.272 44.2082 45.404 44.4882 45.572L43.9122 46.712C43.3682 46.392 42.7562 46.232 42.0762 46.232C41.6362 46.232 41.3002 46.3 41.0682 46.436C40.8442 46.564 40.7322 46.736 40.7322 46.952C40.7322 47.192 40.8522 47.364 41.0922 47.468C41.3402 47.564 41.7202 47.656 42.2322 47.744C42.7442 47.824 43.1642 47.916 43.4922 48.02C43.8202 48.124 44.1002 48.3 44.3322 48.548C44.5722 48.796 44.6922 49.148 44.6922 49.604C44.6922 50.204 44.4322 50.684 43.9122 51.044C43.3922 51.404 42.6842 51.584 41.7882 51.584Z" fill="white"/>
</svg>
