<svg width="84" height="70" viewBox="0 0 84 70" fill="none" xmlns="http://www.w3.org/2000/svg">
<path d="M36.9716 25.7858V31.4525C36.9716 31.8208 36.9574 32.175 36.9149 32.515C36.5891 36.34 34.3366 38.2383 30.1858 38.2383H29.6191C29.2649 38.2383 28.9249 38.4083 28.7124 38.6917L27.0124 40.9583C26.2616 41.9642 25.0433 41.9642 24.2924 40.9583L22.5924 38.6917C22.479 38.5596 22.3404 38.4515 22.1847 38.3737C22.0291 38.2958 21.8594 38.2498 21.6858 38.2383H21.1191C16.5999 38.2383 14.3333 37.1192 14.3333 31.4525V25.7858C14.3333 21.635 16.2458 19.3825 20.0566 19.0567C20.3966 19.0142 20.7508 19 21.1191 19H30.1858C34.7049 19 36.9716 21.2667 36.9716 25.7858Z" stroke="#F2CF8D" stroke-width="2" stroke-miterlimit="10" stroke-linecap="round" stroke-linejoin="round"/>
<path d="M42.6383 20.1191V25.7858C42.6383 29.9508 40.7258 32.1891 36.915 32.5149C36.9575 32.1749 36.9716 31.8208 36.9716 31.4524V25.7858C36.9716 21.2666 34.705 18.9999 30.1858 18.9999H21.1191C20.7508 18.9999 20.3966 19.0141 20.0566 19.0566C20.3825 15.2458 22.635 13.3333 26.7858 13.3333H35.8525C40.3716 13.3333 42.6383 15.5999 42.6383 20.1191V20.1191Z" stroke="#F2CF8D" stroke-width="2" stroke-miterlimit="10" stroke-linecap="round" stroke-linejoin="round"/>
<path d="M30.6178 29.2708H30.632M25.6595 29.2708H25.6737M20.7012 29.2708H20.7153" stroke="#F2CF8D" stroke-width="2" stroke-linecap="round" stroke-linejoin="round"/>
<path d="M8.55884 56.5L8.54684 50.932L5.78684 55.54H5.09084L2.33084 51.004V56.5H0.842844V48.1H2.12684L5.46284 53.668L8.73884 48.1H10.0228L10.0348 56.5H8.55884ZM18.1838 53.332C18.1838 53.436 18.1758 53.584 18.1598 53.776H13.1318C13.2198 54.248 13.4478 54.624 13.8158 54.904C14.1918 55.176 14.6558 55.312 15.2078 55.312C15.9118 55.312 16.4918 55.08 16.9478 54.616L17.7518 55.54C17.4638 55.884 17.0998 56.144 16.6598 56.32C16.2198 56.496 15.7238 56.584 15.1718 56.584C14.4678 56.584 13.8478 56.444 13.3118 56.164C12.7758 55.884 12.3598 55.496 12.0638 55C11.7758 54.496 11.6318 53.928 11.6318 53.296C11.6318 52.672 11.7718 52.112 12.0518 51.616C12.3398 51.112 12.7358 50.72 13.2398 50.44C13.7438 50.16 14.3118 50.02 14.9438 50.02C15.5678 50.02 16.1238 50.16 16.6118 50.44C17.1078 50.712 17.4918 51.1 17.7638 51.604C18.0438 52.1 18.1838 52.676 18.1838 53.332ZM14.9438 51.22C14.4638 51.22 14.0558 51.364 13.7198 51.652C13.3918 51.932 13.1918 52.308 13.1198 52.78H16.7558C16.6918 52.316 16.4958 51.94 16.1678 51.652C15.8398 51.364 15.4318 51.22 14.9438 51.22ZM23.2606 50.02C24.0686 50.02 24.7166 50.256 25.2046 50.728C25.6926 51.2 25.9366 51.9 25.9366 52.828V56.5H24.4366V53.02C24.4366 52.46 24.3046 52.04 24.0406 51.76C23.7766 51.472 23.4006 51.328 22.9126 51.328C22.3606 51.328 21.9246 51.496 21.6046 51.832C21.2846 52.16 21.1246 52.636 21.1246 53.26V56.5H19.6246V50.092H21.0526V50.92C21.3006 50.624 21.6126 50.4 21.9886 50.248C22.3646 50.096 22.7886 50.02 23.2606 50.02ZM29.8195 56.584C29.2995 56.584 28.7915 56.516 28.2955 56.38C27.7995 56.244 27.4035 56.072 27.1075 55.864L27.6835 54.724C27.9715 54.916 28.3155 55.072 28.7155 55.192C29.1235 55.304 29.5235 55.36 29.9155 55.36C30.8115 55.36 31.2595 55.124 31.2595 54.652C31.2595 54.428 31.1435 54.272 30.9115 54.184C30.6875 54.096 30.3235 54.012 29.8195 53.932C29.2915 53.852 28.8595 53.76 28.5235 53.656C28.1955 53.552 27.9075 53.372 27.6595 53.116C27.4195 52.852 27.2995 52.488 27.2995 52.024C27.2995 51.416 27.5515 50.932 28.0555 50.572C28.5675 50.204 29.2555 50.02 30.1195 50.02C30.5595 50.02 30.9995 50.072 31.4395 50.176C31.8795 50.272 32.2395 50.404 32.5195 50.572L31.9435 51.712C31.3995 51.392 30.7875 51.232 30.1075 51.232C29.6675 51.232 29.3315 51.3 29.0995 51.436C28.8755 51.564 28.7635 51.736 28.7635 51.952C28.7635 52.192 28.8835 52.364 29.1235 52.468C29.3715 52.564 29.7515 52.656 30.2635 52.744C30.7755 52.824 31.1955 52.916 31.5235 53.02C31.8515 53.124 32.1315 53.3 32.3635 53.548C32.6035 53.796 32.7235 54.148 32.7235 54.604C32.7235 55.204 32.4635 55.684 31.9435 56.044C31.4235 56.404 30.7155 56.584 29.8195 56.584ZM36.4633 50.02C37.4073 50.02 38.1273 50.248 38.6233 50.704C39.1273 51.152 39.3793 51.832 39.3793 52.744V56.5H37.9633V55.72C37.7793 56 37.5153 56.216 37.1713 56.368C36.8353 56.512 36.4273 56.584 35.9473 56.584C35.4673 56.584 35.0473 56.504 34.6873 56.344C34.3273 56.176 34.0473 55.948 33.8473 55.66C33.6553 55.364 33.5593 55.032 33.5593 54.664C33.5593 54.088 33.7713 53.628 34.1953 53.284C34.6273 52.932 35.3033 52.756 36.2233 52.756H37.8793V52.66C37.8793 52.212 37.7433 51.868 37.4713 51.628C37.2073 51.388 36.8113 51.268 36.2833 51.268C35.9233 51.268 35.5673 51.324 35.2153 51.436C34.8713 51.548 34.5793 51.704 34.3393 51.904L33.7513 50.812C34.0873 50.556 34.4913 50.36 34.9633 50.224C35.4353 50.088 35.9353 50.02 36.4633 50.02ZM36.2593 55.492C36.6353 55.492 36.9673 55.408 37.2553 55.24C37.5513 55.064 37.7593 54.816 37.8793 54.496V53.752H36.3313C35.4673 53.752 35.0353 54.036 35.0353 54.604C35.0353 54.876 35.1433 55.092 35.3593 55.252C35.5753 55.412 35.8753 55.492 36.2593 55.492ZM40.6443 58.912C40.0123 58.912 39.5323 58.788 39.2043 58.54L39.6363 57.424C39.8603 57.592 40.1523 57.676 40.5123 57.676C40.7923 57.676 41.0043 57.588 41.1483 57.412C41.3003 57.244 41.3763 56.992 41.3763 56.656V50.092H42.8763V56.62C42.8763 57.332 42.6803 57.892 42.2883 58.3C41.8963 58.708 41.3483 58.912 40.6443 58.912ZM42.1203 49.036C41.8483 49.036 41.6203 48.952 41.4363 48.784C41.2523 48.608 41.1603 48.392 41.1603 48.136C41.1603 47.88 41.2523 47.668 41.4363 47.5C41.6203 47.324 41.8483 47.236 42.1203 47.236C42.3923 47.236 42.6203 47.32 42.8043 47.488C42.9883 47.648 43.0803 47.852 43.0803 48.1C43.0803 48.364 42.9883 48.588 42.8043 48.772C42.6283 48.948 42.4003 49.036 42.1203 49.036ZM50.8674 53.332C50.8674 53.436 50.8594 53.584 50.8434 53.776H45.8154C45.9034 54.248 46.1314 54.624 46.4994 54.904C46.8754 55.176 47.3394 55.312 47.8914 55.312C48.5954 55.312 49.1754 55.08 49.6314 54.616L50.4354 55.54C50.1474 55.884 49.7834 56.144 49.3434 56.32C48.9034 56.496 48.4074 56.584 47.8554 56.584C47.1514 56.584 46.5314 56.444 45.9954 56.164C45.4594 55.884 45.0434 55.496 44.7474 55C44.4594 54.496 44.3154 53.928 44.3154 53.296C44.3154 52.672 44.4554 52.112 44.7354 51.616C45.0234 51.112 45.4194 50.72 45.9234 50.44C46.4274 50.16 46.9954 50.02 47.6274 50.02C48.2514 50.02 48.8074 50.16 49.2954 50.44C49.7914 50.712 50.1754 51.1 50.4474 51.604C50.7274 52.1 50.8674 52.676 50.8674 53.332ZM47.6274 51.22C47.1474 51.22 46.7394 51.364 46.4034 51.652C46.0754 51.932 45.8754 52.308 45.8034 52.78H49.4394C49.3754 52.316 49.1794 51.94 48.8514 51.652C48.5234 51.364 48.1154 51.22 47.6274 51.22ZM54.2882 56.584C53.7682 56.584 53.2602 56.516 52.7642 56.38C52.2682 56.244 51.8722 56.072 51.5762 55.864L52.1522 54.724C52.4402 54.916 52.7842 55.072 53.1842 55.192C53.5922 55.304 53.9922 55.36 54.3842 55.36C55.2802 55.36 55.7282 55.124 55.7282 54.652C55.7282 54.428 55.6122 54.272 55.3802 54.184C55.1562 54.096 54.7922 54.012 54.2882 53.932C53.7602 53.852 53.3282 53.76 52.9922 53.656C52.6642 53.552 52.3762 53.372 52.1282 53.116C51.8882 52.852 51.7682 52.488 51.7682 52.024C51.7682 51.416 52.0202 50.932 52.5242 50.572C53.0362 50.204 53.7242 50.02 54.5882 50.02C55.0282 50.02 55.4682 50.072 55.9082 50.176C56.3482 50.272 56.7082 50.404 56.9882 50.572L56.4122 51.712C55.8682 51.392 55.2562 51.232 54.5762 51.232C54.1362 51.232 53.8002 51.3 53.5682 51.436C53.3442 51.564 53.2322 51.736 53.2322 51.952C53.2322 52.192 53.3522 52.364 53.5922 52.468C53.8402 52.564 54.2202 52.656 54.7322 52.744C55.2442 52.824 55.6642 52.916 55.9922 53.02C56.3202 53.124 56.6002 53.3 56.8322 53.548C57.0722 53.796 57.1922 54.148 57.1922 54.604C57.1922 55.204 56.9322 55.684 56.4122 56.044C55.8922 56.404 55.1842 56.584 54.2882 56.584Z" fill="#F2CF8D"/>
<line x1="81.5" y1="70" x2="81.5" y2="-1.09278e-07" stroke="#F2CF8D" stroke-width="5"/>
</svg>
