<svg width="84" height="70" viewBox="0 0 84 70" fill="none" xmlns="http://www.w3.org/2000/svg">
<path d="M34.48 26.29V30.29C34.48 30.55 34.47 30.8 34.44 31.04C34.21 33.74 32.62 35.08 29.69 35.08H29.29C29.04 35.08 28.8 35.2 28.65 35.4L27.45 37C26.92 37.71 26.06 37.71 25.53 37L24.33 35.4C24.25 35.3068 24.1521 35.2305 24.0422 35.1755C23.9323 35.1206 23.8126 35.0881 23.69 35.08H23.29C20.1 35.08 18.5 34.29 18.5 30.29V26.29C18.5 23.36 19.85 21.77 22.54 21.54C22.78 21.51 23.03 21.5 23.29 21.5H29.69C32.88 21.5 34.48 23.1 34.48 26.29Z" stroke="white" stroke-width="2" stroke-miterlimit="10" stroke-linecap="round" stroke-linejoin="round"/>
<path d="M38.48 22.29V26.29C38.48 29.23 37.13 30.81 34.44 31.04C34.47 30.8 34.48 30.55 34.48 30.29V26.29C34.48 23.1 32.88 21.5 29.69 21.5H23.29C23.03 21.5 22.78 21.51 22.54 21.54C22.77 18.85 24.36 17.5 27.29 17.5H33.69C36.88 17.5 38.48 19.1 38.48 22.29V22.29Z" stroke="white" stroke-width="2" stroke-miterlimit="10" stroke-linecap="round" stroke-linejoin="round"/>
<path d="M29.9951 28.75H30.0051M26.4951 28.75H26.5051M22.9951 28.75H23.0051" stroke="white" stroke-width="2" stroke-linecap="round" stroke-linejoin="round"/>
<path d="M8.55884 51.5L8.54684 45.932L5.78684 50.54H5.09084L2.33084 46.004V51.5H0.842844V43.1H2.12684L5.46284 48.668L8.73884 43.1H10.0228L10.0348 51.5H8.55884ZM18.1838 48.332C18.1838 48.436 18.1758 48.584 18.1598 48.776H13.1318C13.2198 49.248 13.4478 49.624 13.8158 49.904C14.1918 50.176 14.6558 50.312 15.2078 50.312C15.9118 50.312 16.4918 50.08 16.9478 49.616L17.7518 50.54C17.4638 50.884 17.0998 51.144 16.6598 51.32C16.2198 51.496 15.7238 51.584 15.1718 51.584C14.4678 51.584 13.8478 51.444 13.3118 51.164C12.7758 50.884 12.3598 50.496 12.0638 50C11.7758 49.496 11.6318 48.928 11.6318 48.296C11.6318 47.672 11.7718 47.112 12.0518 46.616C12.3398 46.112 12.7358 45.72 13.2398 45.44C13.7438 45.16 14.3118 45.02 14.9438 45.02C15.5678 45.02 16.1238 45.16 16.6118 45.44C17.1078 45.712 17.4918 46.1 17.7638 46.604C18.0438 47.1 18.1838 47.676 18.1838 48.332ZM14.9438 46.22C14.4638 46.22 14.0558 46.364 13.7198 46.652C13.3918 46.932 13.1918 47.308 13.1198 47.78H16.7558C16.6918 47.316 16.4958 46.94 16.1678 46.652C15.8398 46.364 15.4318 46.22 14.9438 46.22ZM23.2606 45.02C24.0686 45.02 24.7166 45.256 25.2046 45.728C25.6926 46.2 25.9366 46.9 25.9366 47.828V51.5H24.4366V48.02C24.4366 47.46 24.3046 47.04 24.0406 46.76C23.7766 46.472 23.4006 46.328 22.9126 46.328C22.3606 46.328 21.9246 46.496 21.6046 46.832C21.2846 47.16 21.1246 47.636 21.1246 48.26V51.5H19.6246V45.092H21.0526V45.92C21.3006 45.624 21.6126 45.4 21.9886 45.248C22.3646 45.096 22.7886 45.02 23.2606 45.02ZM29.8195 51.584C29.2995 51.584 28.7915 51.516 28.2955 51.38C27.7995 51.244 27.4035 51.072 27.1075 50.864L27.6835 49.724C27.9715 49.916 28.3155 50.072 28.7155 50.192C29.1235 50.304 29.5235 50.36 29.9155 50.36C30.8115 50.36 31.2595 50.124 31.2595 49.652C31.2595 49.428 31.1435 49.272 30.9115 49.184C30.6875 49.096 30.3235 49.012 29.8195 48.932C29.2915 48.852 28.8595 48.76 28.5235 48.656C28.1955 48.552 27.9075 48.372 27.6595 48.116C27.4195 47.852 27.2995 47.488 27.2995 47.024C27.2995 46.416 27.5515 45.932 28.0555 45.572C28.5675 45.204 29.2555 45.02 30.1195 45.02C30.5595 45.02 30.9995 45.072 31.4395 45.176C31.8795 45.272 32.2395 45.404 32.5195 45.572L31.9435 46.712C31.3995 46.392 30.7875 46.232 30.1075 46.232C29.6675 46.232 29.3315 46.3 29.0995 46.436C28.8755 46.564 28.7635 46.736 28.7635 46.952C28.7635 47.192 28.8835 47.364 29.1235 47.468C29.3715 47.564 29.7515 47.656 30.2635 47.744C30.7755 47.824 31.1955 47.916 31.5235 48.02C31.8515 48.124 32.1315 48.3 32.3635 48.548C32.6035 48.796 32.7235 49.148 32.7235 49.604C32.7235 50.204 32.4635 50.684 31.9435 51.044C31.4235 51.404 30.7155 51.584 29.8195 51.584ZM36.4633 45.02C37.4073 45.02 38.1273 45.248 38.6233 45.704C39.1273 46.152 39.3793 46.832 39.3793 47.744V51.5H37.9633V50.72C37.7793 51 37.5153 51.216 37.1713 51.368C36.8353 51.512 36.4273 51.584 35.9473 51.584C35.4673 51.584 35.0473 51.504 34.6873 51.344C34.3273 51.176 34.0473 50.948 33.8473 50.66C33.6553 50.364 33.5593 50.032 33.5593 49.664C33.5593 49.088 33.7713 48.628 34.1953 48.284C34.6273 47.932 35.3033 47.756 36.2233 47.756H37.8793V47.66C37.8793 47.212 37.7433 46.868 37.4713 46.628C37.2073 46.388 36.8113 46.268 36.2833 46.268C35.9233 46.268 35.5673 46.324 35.2153 46.436C34.8713 46.548 34.5793 46.704 34.3393 46.904L33.7513 45.812C34.0873 45.556 34.4913 45.36 34.9633 45.224C35.4353 45.088 35.9353 45.02 36.4633 45.02ZM36.2593 50.492C36.6353 50.492 36.9673 50.408 37.2553 50.24C37.5513 50.064 37.7593 49.816 37.8793 49.496V48.752H36.3313C35.4673 48.752 35.0353 49.036 35.0353 49.604C35.0353 49.876 35.1433 50.092 35.3593 50.252C35.5753 50.412 35.8753 50.492 36.2593 50.492ZM40.6443 53.912C40.0123 53.912 39.5323 53.788 39.2043 53.54L39.6363 52.424C39.8603 52.592 40.1523 52.676 40.5123 52.676C40.7923 52.676 41.0043 52.588 41.1483 52.412C41.3003 52.244 41.3763 51.992 41.3763 51.656V45.092H42.8763V51.62C42.8763 52.332 42.6803 52.892 42.2883 53.3C41.8963 53.708 41.3483 53.912 40.6443 53.912ZM42.1203 44.036C41.8483 44.036 41.6203 43.952 41.4363 43.784C41.2523 43.608 41.1603 43.392 41.1603 43.136C41.1603 42.88 41.2523 42.668 41.4363 42.5C41.6203 42.324 41.8483 42.236 42.1203 42.236C42.3923 42.236 42.6203 42.32 42.8043 42.488C42.9883 42.648 43.0803 42.852 43.0803 43.1C43.0803 43.364 42.9883 43.588 42.8043 43.772C42.6283 43.948 42.4003 44.036 42.1203 44.036ZM50.8674 48.332C50.8674 48.436 50.8594 48.584 50.8434 48.776H45.8154C45.9034 49.248 46.1314 49.624 46.4994 49.904C46.8754 50.176 47.3394 50.312 47.8914 50.312C48.5954 50.312 49.1754 50.08 49.6314 49.616L50.4354 50.54C50.1474 50.884 49.7834 51.144 49.3434 51.32C48.9034 51.496 48.4074 51.584 47.8554 51.584C47.1514 51.584 46.5314 51.444 45.9954 51.164C45.4594 50.884 45.0434 50.496 44.7474 50C44.4594 49.496 44.3154 48.928 44.3154 48.296C44.3154 47.672 44.4554 47.112 44.7354 46.616C45.0234 46.112 45.4194 45.72 45.9234 45.44C46.4274 45.16 46.9954 45.02 47.6274 45.02C48.2514 45.02 48.8074 45.16 49.2954 45.44C49.7914 45.712 50.1754 46.1 50.4474 46.604C50.7274 47.1 50.8674 47.676 50.8674 48.332ZM47.6274 46.22C47.1474 46.22 46.7394 46.364 46.4034 46.652C46.0754 46.932 45.8754 47.308 45.8034 47.78H49.4394C49.3754 47.316 49.1794 46.94 48.8514 46.652C48.5234 46.364 48.1154 46.22 47.6274 46.22ZM54.2882 51.584C53.7682 51.584 53.2602 51.516 52.7642 51.38C52.2682 51.244 51.8722 51.072 51.5762 50.864L52.1522 49.724C52.4402 49.916 52.7842 50.072 53.1842 50.192C53.5922 50.304 53.9922 50.36 54.3842 50.36C55.2802 50.36 55.7282 50.124 55.7282 49.652C55.7282 49.428 55.6122 49.272 55.3802 49.184C55.1562 49.096 54.7922 49.012 54.2882 48.932C53.7602 48.852 53.3282 48.76 52.9922 48.656C52.6642 48.552 52.3762 48.372 52.1282 48.116C51.8882 47.852 51.7682 47.488 51.7682 47.024C51.7682 46.416 52.0202 45.932 52.5242 45.572C53.0362 45.204 53.7242 45.02 54.5882 45.02C55.0282 45.02 55.4682 45.072 55.9082 45.176C56.3482 45.272 56.7082 45.404 56.9882 45.572L56.4122 46.712C55.8682 46.392 55.2562 46.232 54.5762 46.232C54.1362 46.232 53.8002 46.3 53.5682 46.436C53.3442 46.564 53.2322 46.736 53.2322 46.952C53.2322 47.192 53.3522 47.364 53.5922 47.468C53.8402 47.564 54.2202 47.656 54.7322 47.744C55.2442 47.824 55.6642 47.916 55.9922 48.02C56.3202 48.124 56.6002 48.3 56.8322 48.548C57.0722 48.796 57.1922 49.148 57.1922 49.604C57.1922 50.204 56.9322 50.684 56.4122 51.044C55.8922 51.404 55.1842 51.584 54.2882 51.584Z" fill="white"/>
</svg>
