<svg width="25" height="25" viewBox="0 0 25 25" fill="none" xmlns="http://www.w3.org/2000/svg">
<path d="M18.48 11.29V15.29C18.48 15.55 18.47 15.8 18.44 16.04C18.21 18.74 16.62 20.08 13.69 20.08H13.29C13.04 20.08 12.8 20.2 12.65 20.4L11.45 22C10.92 22.71 10.06 22.71 9.53 22L8.33 20.4C8.24996 20.3068 8.15213 20.2305 8.04223 20.1755C7.93234 20.1206 7.8126 20.0881 7.69 20.08H7.29C4.1 20.08 2.5 19.29 2.5 15.29V11.29C2.5 8.36 3.85 6.77 6.54 6.54C6.78 6.51 7.03 6.5 7.29 6.5H13.69C16.88 6.5 18.48 8.1 18.48 11.29Z" stroke="white" stroke-width="2" stroke-miterlimit="10" stroke-linecap="round" stroke-linejoin="round"/>
<path d="M22.48 7.29V11.29C22.48 14.23 21.13 15.81 18.44 16.04C18.47 15.8 18.48 15.55 18.48 15.29V11.29C18.48 8.1 16.88 6.5 13.69 6.5H7.29004C7.03004 6.5 6.78004 6.51 6.54004 6.54C6.77004 3.85 8.36004 2.5 11.29 2.5H17.69C20.88 2.5 22.48 4.1 22.48 7.29V7.29Z" stroke="white" stroke-width="2" stroke-miterlimit="10" stroke-linecap="round" stroke-linejoin="round"/>
<path d="M13.9951 13.75H14.0051M10.4951 13.75H10.5051M6.99512 13.75H7.00512" stroke="white" stroke-width="2" stroke-linecap="round" stroke-linejoin="round"/>
</svg>
