<svg width="35" height="35" viewBox="0 0 35 35" fill="none" xmlns="http://www.w3.org/2000/svg">
<path d="M25.9716 15.7858V21.4525C25.9716 21.8208 25.9574 22.175 25.9149 22.515C25.5891 26.34 23.3366 28.2383 19.1858 28.2383H18.6191C18.2649 28.2383 17.9249 28.4083 17.7124 28.6917L16.0124 30.9583C15.2616 31.9642 14.0433 31.9642 13.2924 30.9583L11.5924 28.6917C11.479 28.5596 11.3404 28.4515 11.1847 28.3737C11.0291 28.2958 10.8594 28.2498 10.6858 28.2383H10.1191C5.59992 28.2383 3.33325 27.1192 3.33325 21.4525V15.7858C3.33325 11.635 5.24575 9.3825 9.05659 9.05667C9.39659 9.01417 9.75075 9 10.1191 9H19.1858C23.7049 9 25.9716 11.2667 25.9716 15.7858Z" stroke="#F2CF8D" stroke-width="2" stroke-miterlimit="10" stroke-linecap="round" stroke-linejoin="round"/>
<path d="M31.6383 10.1191V15.7858C31.6383 19.9508 29.7258 22.1891 25.915 22.5149C25.9575 22.1749 25.9716 21.8208 25.9716 21.4524V15.7858C25.9716 11.2666 23.705 8.99992 19.1858 8.99992H10.1191C9.75081 8.99992 9.39664 9.01409 9.05664 9.05659C9.38247 5.24575 11.635 3.33325 15.7858 3.33325H24.8525C29.3716 3.33325 31.6383 5.59992 31.6383 10.1191V10.1191Z" stroke="#F2CF8D" stroke-width="2" stroke-miterlimit="10" stroke-linecap="round" stroke-linejoin="round"/>
<path d="M19.6178 19.2708H19.632M14.6595 19.2708H14.6737M9.70117 19.2708H9.71534" stroke="#F2CF8D" stroke-width="2" stroke-linecap="round" stroke-linejoin="round"/>
</svg>
