<svg width="158" height="161" viewBox="0 0 158 161" fill="none" xmlns="http://www.w3.org/2000/svg">
<ellipse cx="69" cy="89.1196" rx="68.25" ry="66.2426" fill="white"/>
<path d="M28.853 54.9948C33.8715 80.0866 26.8458 82.094 55.2134 72.8277" stroke="#F2CF8D" stroke-width="4.01471"/>
<path d="M47.9882 120.996C43.6486 117.474 39.7933 113.56 36.4223 109.253C33.1416 104.937 30.8472 100.883 29.5392 97.0917L45.6679 88.8367C46.9881 92.3069 48.8303 95.7457 51.1943 99.1529C53.5988 102.51 56.2227 105.342 59.0658 107.649C61.5099 109.633 63.4379 110.825 64.8496 111.226C66.3019 111.577 67.4125 111.279 68.1815 110.331C69.0719 109.234 69.0414 107.844 68.09 106.162C67.1884 104.521 65.4295 102.101 62.8132 98.9023C59.461 94.776 56.8226 91.1461 54.8981 88.0128C53.0141 84.8296 51.9649 81.3312 51.7505 77.5175C51.5767 73.6539 53.0277 69.8267 56.1038 66.0358C58.7751 62.7437 62.1263 60.4997 66.1575 59.3037C70.1886 58.1077 74.6522 58.2139 79.5481 59.6222C84.4939 61.071 89.5856 63.9203 94.823 68.1701C98.4143 71.0842 101.607 74.3367 104.401 77.9275C107.286 81.5089 109.443 85.1203 110.872 88.7618L95.1783 97.2456C92.1453 90.483 88.3343 85.2399 83.7453 81.5163C79.2062 77.8331 76.0463 77.0889 74.2654 79.2836C73.4154 80.3311 73.4412 81.6756 74.3428 83.3171C75.2848 84.9087 77.0593 87.2585 79.6661 90.3664C83.0494 94.3526 85.708 97.9575 87.642 101.181C89.6164 104.355 90.7107 107.849 90.9251 111.662C91.1893 115.517 89.7834 119.339 86.7074 123.13C84.0361 126.422 80.6849 128.666 76.6537 129.862C72.663 131.008 68.1745 130.882 63.1882 129.483C58.2923 128.074 53.2256 125.245 47.9882 120.996Z" fill="black"/>
<path d="M78.4852 70.9881C78.8314 72.452 77.9251 73.918 76.4624 74.2639C74.9985 74.6101 73.5325 73.7038 73.1866 72.2411C72.8404 70.7772 73.7467 69.3112 75.2094 68.9653C76.6721 68.6194 78.1393 69.5254 78.4852 70.9881Z" fill="#129AD6"/>
<path d="M87.8907 68.7635C88.2369 70.2274 87.3306 71.6934 85.8679 72.0393C84.404 72.3855 82.938 71.4792 82.5921 70.0165C82.2459 68.5526 83.1522 67.0866 84.6149 66.7407C86.0776 66.3948 87.5448 67.3008 87.8907 68.7635Z" fill="#E03339"/>
<path d="M82.3704 65.2908C82.7166 66.7547 81.8103 68.2207 80.3476 68.5666C78.8837 68.9128 77.4177 68.0065 77.0718 66.5438C76.7256 65.0799 77.6319 63.6139 79.0946 63.268C80.557 62.9209 82.0243 63.8269 82.3704 65.2908Z" fill="#FCDD10"/>
<path d="M84.4935 74.2693C84.8397 75.7332 83.9334 77.1992 82.4707 77.5451C81.0068 77.8913 79.5408 76.985 79.1949 75.5223C78.8487 74.0584 79.755 72.5924 81.2177 72.2465C82.6801 71.8994 84.1473 72.8054 84.4935 74.2693Z" fill="#89C94E"/>
<circle cx="61.609" cy="107.763" r="9.83603" transform="rotate(-0.457124 61.609 107.763)" fill="black" stroke="white" stroke-width="0.401471"/>
<path d="M78.4852 70.9891C78.8314 72.453 77.9251 73.919 76.4624 74.2649C74.9985 74.6111 73.5325 73.7048 73.1866 72.2421C72.8404 70.7782 73.7467 69.3122 75.2094 68.9663C76.6721 68.6204 78.1393 69.5264 78.4852 70.9891Z" fill="#129AD6"/>
<path d="M87.8907 68.7644C88.2369 70.2283 87.3306 71.6944 85.8679 72.0403C84.404 72.3864 82.938 71.4802 82.5921 70.0175C82.2459 68.5536 83.1522 67.0875 84.6149 66.7416C86.0776 66.3958 87.5448 67.3018 87.8907 68.7644Z" fill="#E03339"/>
<path d="M82.3704 65.2918C82.7166 66.7557 81.8103 68.2217 80.3476 68.5676C78.8837 68.9138 77.4177 68.0075 77.0718 66.5448C76.7256 65.0809 77.6319 63.6149 79.0946 63.269C80.557 62.9219 82.0243 63.8279 82.3704 65.2918Z" fill="#F2CF8D"/>
<path d="M84.4935 74.2703C84.8397 75.7342 83.9334 77.2002 82.4707 77.5461C81.0068 77.8923 79.5408 76.986 79.1949 75.5233C78.8487 74.0594 79.755 72.5934 81.2177 72.2475C82.6801 71.9004 84.1473 72.8064 84.4935 74.2703Z" fill="#89C94E"/>
<circle cx="61.609" cy="107.763" r="9.83603" transform="rotate(-0.457124 61.609 107.763)" fill="black" stroke="white" stroke-width="0.401471"/>
<path d="M55.2397 103.517C53.3428 106.379 53.6538 110.072 55.7651 112.57C56.2151 113.108 56.7487 113.586 57.3621 113.993C58.2996 114.614 59.3272 115 60.3756 115.16C63.2002 115.598 66.1582 114.403 67.8393 111.867C69.7306 109.014 69.4243 105.332 67.3251 102.834C66.8713 102.29 66.3312 101.803 65.7122 101.393C62.2392 99.0929 57.5413 100.045 55.2397 103.517ZM65.918 108.583C66.3651 108.879 66.4866 109.478 66.1902 109.926L65.4048 111.11C65.1103 111.555 64.5108 111.676 64.0637 111.38L62.035 110.035L60.6883 112.067C60.3937 112.511 59.7943 112.632 59.3472 112.336L58.1624 111.551C57.7181 111.256 57.5965 110.657 57.8911 110.212L59.2377 108.181L57.2062 106.834C56.7619 106.54 56.6404 105.94 56.9349 105.496L57.7203 104.311C58.0167 103.864 58.6161 103.742 59.0604 104.037L61.092 105.384L62.4368 103.355C62.7332 102.908 63.3327 102.786 63.777 103.081L64.9618 103.866C65.4089 104.163 65.5304 104.762 65.2341 105.209L63.8892 107.238L65.918 108.583Z" fill="white"/>
<path d="M25.919 47.5562C25.3601 47.6437 24.9745 48.1726 25.062 48.7315L25.6985 52.7962L25.1904 52.8758L25.5087 54.9082L27.8593 56.6222L28.0185 57.6384L31.067 57.161L30.9078 56.1448L32.6219 53.7942L32.3037 51.7619L31.7956 51.8414L31.1591 47.7767C31.0715 47.2178 30.5477 46.8314 29.9837 46.9197M26.0782 48.5724L30.1429 47.9359L30.7794 52.0006L26.7147 52.6371M26.825 50.0171L26.9841 51.0333L28.0003 50.8741L27.8411 49.858M28.8573 49.6988L29.0164 50.715L30.0326 50.5559L29.8735 49.5397L28.8573 49.6988Z" fill="#F2CF8D"/>
<path d="M107.085 15.4072L104.794 19.4153L104.508 19.4153L104.222 19.4153L99.5 25.5L96.7781 32.0123L98.4958 40.0285C99.2593 42.7006 100.786 48.1592 100.786 48.6173C100.786 49.0754 100.023 56.4427 99.641 60.0691L101.359 63.5046L104.794 64.6498L108.5 64.5L113.956 63.5046L118.536 67.5127L122.545 68.0853L127.698 66.9401L129.988 62.3594L131.133 58.9239L133.424 57.7787L139.722 53.7706L141.44 50.3351L140.867 46.8995L138.577 44.0366L133.424 39.4559L131.706 36.0204L129.416 28.5767L125.407 21.7057L120.254 18.8428L110.52 15.4072L107.085 15.4072Z" fill="url(#paint0_linear_1444_25656)" stroke="url(#paint1_linear_1444_25656)"/>
<path d="M108.638 17.7668C99.9125 20.5564 95.0886 29.9145 97.8783 38.6399L100.314 46.2581C100.828 47.8661 100.926 50.5367 100.548 52.1687L99.1258 58.1728C98.2487 61.8818 100.644 64.922 104.442 64.9863C117.017 65.1498 129.275 61.2308 139.423 53.8024C142.275 51.7282 142.467 47.512 139.8 45.1686L135.159 41.1029C133.93 39.985 132.461 37.7526 131.947 36.1446L129.511 28.5264C126.73 19.8274 117.337 14.9856 108.638 17.7668Z" stroke="white" stroke-width="1.5" stroke-miterlimit="10" stroke-linecap="round"/>
<path d="M113.758 16.9717C110.28 17.083 106.903 18.1629 104.005 20.09C104.146 17.8949 105.606 15.9173 107.82 15.2094C110.034 14.5014 112.37 15.2654 113.758 16.9717V16.9717Z" stroke="white" stroke-width="1.5" stroke-miterlimit="10" stroke-linecap="round" stroke-linejoin="round"/>
<path d="M130.395 58.5565C131.655 62.4961 129.127 66.8572 124.777 68.2478C122.616 68.9389 120.353 68.7676 118.517 67.9334C116.607 67.0634 115.191 65.5103 114.579 63.6133" stroke="white" stroke-width="1.5" stroke-miterlimit="10"/>
<defs>
<linearGradient id="paint0_linear_1444_25656" x1="122.624" y1="9.82016" x2="90.1925" y2="16.909" gradientUnits="userSpaceOnUse">
<stop stop-color="#F9A811"/>
<stop offset="1" stop-color="#B97900"/>
</linearGradient>
<linearGradient id="paint1_linear_1444_25656" x1="122.624" y1="9.82016" x2="90.1925" y2="16.909" gradientUnits="userSpaceOnUse">
<stop stop-color="#F9A811"/>
<stop offset="1" stop-color="#B97900"/>
</linearGradient>
</defs>
</svg>
