<svg width="156" height="152" viewBox="0 0 156 152" fill="none" xmlns="http://www.w3.org/2000/svg">
<ellipse cx="69" cy="80.6196" rx="68.25" ry="66.2426" fill="white"/>
<path d="M28.853 46.4948C33.8715 71.5866 26.8458 73.594 55.2134 64.3277" stroke="#F2CF8D" stroke-width="4.01471"/>
<path d="M47.9882 112.496C43.6486 108.974 39.7933 105.06 36.4223 100.753C33.1416 96.4367 30.8472 92.3829 29.5392 88.5917L45.6679 80.3367C46.9881 83.8069 48.8303 87.2457 51.1943 90.6529C53.5988 94.0102 56.2227 96.8424 59.0658 99.1495C61.5099 101.133 63.4379 102.325 64.8496 102.726C66.3019 103.077 67.4125 102.779 68.1815 101.831C69.0719 100.734 69.0414 99.344 68.09 97.662C67.1884 96.0205 65.4295 93.6006 62.8132 90.4023C59.461 86.276 56.8226 82.6461 54.8981 79.5128C53.0141 76.3296 51.9649 72.8312 51.7505 69.0175C51.5767 65.1539 53.0277 61.3267 56.1038 57.5358C58.7751 54.2437 62.1263 51.9997 66.1575 50.8037C70.1886 49.6077 74.6522 49.7139 79.5481 51.1222C84.4939 52.571 89.5856 55.4203 94.823 59.6701C98.4143 62.5842 101.607 65.8367 104.401 69.4275C107.286 73.0089 109.443 76.6203 110.872 80.2618L95.1783 88.7456C92.1453 81.983 88.3343 76.7399 83.7453 73.0163C79.2062 69.3331 76.0463 68.5889 74.2654 70.7836C73.4154 71.8311 73.4412 73.1756 74.3428 74.8171C75.2848 76.4087 77.0593 78.7585 79.6661 81.8664C83.0494 85.8526 85.708 89.4575 87.642 92.6811C89.6164 95.8549 90.7107 99.3487 90.9251 103.162C91.1893 107.017 89.7834 110.839 86.7074 114.63C84.0361 117.922 80.6849 120.166 76.6537 121.362C72.663 122.508 68.1745 122.382 63.1882 120.983C58.2923 119.574 53.2256 116.745 47.9882 112.496Z" fill="black"/>
<path d="M78.4852 62.4881C78.8314 63.952 77.9251 65.418 76.4624 65.7639C74.9985 66.1101 73.5325 65.2038 73.1866 63.7411C72.8404 62.2772 73.7467 60.8112 75.2094 60.4653C76.6721 60.1194 78.1393 61.0254 78.4852 62.4881Z" fill="#129AD6"/>
<path d="M87.8907 60.2635C88.2369 61.7274 87.3306 63.1934 85.8679 63.5393C84.404 63.8855 82.938 62.9792 82.5921 61.5165C82.2459 60.0526 83.1522 58.5866 84.6149 58.2407C86.0776 57.8948 87.5448 58.8008 87.8907 60.2635Z" fill="#E03339"/>
<path d="M82.3704 56.7908C82.7166 58.2547 81.8103 59.7207 80.3476 60.0666C78.8837 60.4128 77.4177 59.5065 77.0718 58.0438C76.7256 56.5799 77.6319 55.1139 79.0946 54.768C80.557 54.4209 82.0243 55.3269 82.3704 56.7908Z" fill="#FCDD10"/>
<path d="M84.4935 65.7693C84.8397 67.2332 83.9334 68.6992 82.4707 69.0451C81.0068 69.3913 79.5408 68.485 79.1949 67.0223C78.8487 65.5584 79.755 64.0924 81.2177 63.7465C82.6801 63.3994 84.1473 64.3054 84.4935 65.7693Z" fill="#89C94E"/>
<circle cx="61.609" cy="99.263" r="9.83603" transform="rotate(-0.457124 61.609 99.263)" fill="black" stroke="white" stroke-width="0.401471"/>
<path d="M78.4852 62.4891C78.8314 63.953 77.9251 65.419 76.4624 65.7649C74.9985 66.1111 73.5325 65.2048 73.1866 63.7421C72.8404 62.2782 73.7467 60.8122 75.2094 60.4663C76.6721 60.1204 78.1393 61.0264 78.4852 62.4891Z" fill="#129AD6"/>
<path d="M87.8907 60.2644C88.2369 61.7283 87.3306 63.1944 85.8679 63.5403C84.404 63.8864 82.938 62.9802 82.5921 61.5175C82.2459 60.0536 83.1522 58.5875 84.6149 58.2416C86.0776 57.8958 87.5448 58.8018 87.8907 60.2644Z" fill="#E03339"/>
<path d="M82.3704 56.7918C82.7166 58.2557 81.8103 59.7217 80.3476 60.0676C78.8837 60.4138 77.4177 59.5075 77.0718 58.0448C76.7256 56.5809 77.6319 55.1149 79.0946 54.769C80.557 54.4219 82.0243 55.3279 82.3704 56.7918Z" fill="#F2CF8D"/>
<path d="M84.4935 65.7703C84.8397 67.2342 83.9334 68.7002 82.4707 69.0461C81.0068 69.3923 79.5408 68.486 79.1949 67.0233C78.8487 65.5594 79.755 64.0934 81.2177 63.7475C82.6801 63.4004 84.1473 64.3064 84.4935 65.7703Z" fill="#89C94E"/>
<circle cx="61.609" cy="99.263" r="9.83603" transform="rotate(-0.457124 61.609 99.263)" fill="black" stroke="white" stroke-width="0.401471"/>
<path d="M55.2397 95.0173C53.3428 97.8788 53.6538 101.572 55.7651 104.07C56.2151 104.608 56.7487 105.086 57.3621 105.493C58.2996 106.114 59.3272 106.5 60.3756 106.66C63.2002 107.098 66.1582 105.903 67.8393 103.367C69.7306 100.514 69.4243 96.832 67.3251 94.3343C66.8713 93.7901 66.3312 93.3034 65.7122 92.8931C62.2392 90.5929 57.5413 91.5453 55.2397 95.0173ZM65.918 100.083C66.3651 100.379 66.4866 100.978 66.1902 101.426L65.4048 102.61C65.1103 103.055 64.5108 103.176 64.0637 102.88L62.035 101.535L60.6883 103.567C60.3937 104.011 59.7943 104.132 59.3472 103.836L58.1624 103.051C57.7181 102.756 57.5965 102.157 57.8911 101.712L59.2377 99.6808L57.2062 98.3341C56.7619 98.0396 56.6404 97.4401 56.9349 96.9958L57.7203 95.811C58.0167 95.3639 58.6161 95.2424 59.0604 95.5369L61.092 96.8836L62.4368 94.8548C62.7332 94.4077 63.3327 94.2862 63.777 94.5807L64.9618 95.3661C65.4089 95.6625 65.5304 96.262 65.2341 96.7091L63.8892 98.7378L65.918 100.083Z" fill="white"/>
<path d="M25.919 39.0562C25.3601 39.1437 24.9745 39.6726 25.062 40.2315L25.6985 44.2962L25.1904 44.3758L25.5087 46.4082L27.8593 48.1222L28.0185 49.1384L31.067 48.661L30.9078 47.6448L32.6219 45.2942L32.3037 43.2619L31.7956 43.3414L31.1591 39.2767C31.0715 38.7178 30.5477 38.3314 29.9837 38.4197M26.0782 40.0724L30.1429 39.4359L30.7794 43.5006L26.7147 44.1371M26.825 41.5171L26.9841 42.5333L28.0003 42.3741L27.8411 41.358M28.8573 41.1988L29.0164 42.215L30.0326 42.0559L29.8735 41.0397L28.8573 41.1988Z" fill="#F2CF8D"/>
<path d="M136.875 35.5064L132.092 46.0874C131.781 46.7752 131.456 47.4245 131.089 48.0235C127.252 54.8907 121.444 56.5343 113.694 53.0309L112.636 52.5526C111.974 52.2537 111.196 52.2842 110.56 52.6339L105.473 55.4315C103.222 56.6759 100.947 55.6476 100.394 53.1358L99.1324 47.4685C99.0321 47.1262 98.8646 46.8074 98.6396 46.5307C98.4146 46.2539 98.1367 46.0248 97.8221 45.8568L96.764 45.3785C88.3256 41.5643 85.0378 37.5614 89.8205 26.9804L94.6032 16.3993C98.1066 8.6487 103.579 6.05691 110.97 8.66489C111.64 8.8725 112.314 9.14497 113.001 9.45585L129.931 17.1082C138.369 20.9225 140.689 27.068 136.875 35.5064Z" fill="url(#paint0_linear_1444_25704)" stroke="white" stroke-width="2" stroke-miterlimit="10" stroke-linecap="round" stroke-linejoin="round"/>
<path d="M152.238 29.7066L147.455 40.2876C143.94 48.0647 138.48 50.63 131.089 48.0221C131.455 47.4231 131.781 46.7737 132.091 46.0859L136.874 35.5049C140.688 27.0665 138.369 20.921 129.931 17.1068L113.001 9.45438C112.313 9.1435 111.64 8.87103 110.969 8.66342C114.794 1.82267 120.614 0.152709 128.365 3.65607L145.294 11.3084C153.733 15.1227 156.052 21.2682 152.238 29.7066Z" fill="url(#paint1_linear_1444_25704)" stroke="white" stroke-width="2" stroke-miterlimit="10" stroke-linecap="round" stroke-linejoin="round"/>
<path d="M121.039 35.4401L121.065 35.4521L121.039 35.4401ZM111.78 31.2552L111.807 31.2672L111.78 31.2552ZM102.522 27.0703L102.548 27.0823L102.522 27.0703Z" fill="url(#paint2_linear_1444_25704)"/>
<path d="M121.039 35.4401L121.065 35.4521M111.78 31.2552L111.807 31.2672M102.522 27.0703L102.548 27.0823" stroke="white" stroke-width="2" stroke-linecap="round" stroke-linejoin="round"/>
<defs>
<linearGradient id="paint0_linear_1444_25704" x1="126.826" y1="10.2878" x2="93.152" y2="4.40339" gradientUnits="userSpaceOnUse">
<stop stop-color="#F9A811"/>
<stop offset="1" stop-color="#B97900"/>
</linearGradient>
<linearGradient id="paint1_linear_1444_25704" x1="141.918" y1="5.20744" x2="108.513" y2="0.845185" gradientUnits="userSpaceOnUse">
<stop stop-color="#F9A811"/>
<stop offset="1" stop-color="#B97900"/>
</linearGradient>
<linearGradient id="paint2_linear_1444_25704" x1="113.296" y1="31.8242" x2="111.629" y2="34.1956" gradientUnits="userSpaceOnUse">
<stop stop-color="#F9A811"/>
<stop offset="1" stop-color="#B97900"/>
</linearGradient>
</defs>
</svg>
