<svg width="167" height="167" viewBox="0 0 167 167" fill="none" xmlns="http://www.w3.org/2000/svg">
<ellipse cx="69" cy="95.6196" rx="68.25" ry="66.2426" fill="white"/>
<path d="M28.853 61.4948C33.8715 86.5866 26.8458 88.594 55.2134 79.3277" stroke="#F2CF8D" stroke-width="4.01471"/>
<path d="M47.9882 127.496C43.6486 123.974 39.7933 120.06 36.4223 115.753C33.1416 111.437 30.8472 107.383 29.5392 103.592L45.6679 95.3367C46.9881 98.8069 48.8303 102.246 51.1943 105.653C53.5988 109.01 56.2227 111.842 59.0658 114.149C61.5099 116.133 63.4379 117.325 64.8496 117.726C66.3019 118.077 67.4125 117.779 68.1815 116.831C69.0719 115.734 69.0414 114.344 68.09 112.662C67.1884 111.021 65.4295 108.601 62.8132 105.402C59.461 101.276 56.8226 97.6461 54.8981 94.5128C53.0141 91.3296 51.9649 87.8312 51.7505 84.0175C51.5767 80.1539 53.0277 76.3267 56.1038 72.5358C58.7751 69.2437 62.1263 66.9997 66.1575 65.8037C70.1886 64.6077 74.6522 64.7139 79.5481 66.1222C84.4939 67.571 89.5856 70.4203 94.823 74.6701C98.4143 77.5842 101.607 80.8367 104.401 84.4275C107.286 88.0089 109.443 91.6203 110.872 95.2618L95.1783 103.746C92.1453 96.983 88.3343 91.7399 83.7453 88.0163C79.2062 84.3331 76.0463 83.5889 74.2654 85.7836C73.4154 86.8311 73.4412 88.1756 74.3428 89.8171C75.2848 91.4087 77.0593 93.7585 79.6661 96.8664C83.0494 100.853 85.708 104.457 87.642 107.681C89.6164 110.855 90.7107 114.349 90.9251 118.162C91.1893 122.017 89.7834 125.839 86.7074 129.63C84.0361 132.922 80.6849 135.166 76.6537 136.362C72.663 137.508 68.1745 137.382 63.1882 135.983C58.2923 134.574 53.2256 131.745 47.9882 127.496Z" fill="black"/>
<path d="M78.4852 77.4881C78.8314 78.952 77.9251 80.418 76.4624 80.7639C74.9985 81.1101 73.5325 80.2038 73.1866 78.7411C72.8404 77.2772 73.7467 75.8112 75.2094 75.4653C76.6721 75.1194 78.1393 76.0254 78.4852 77.4881Z" fill="#129AD6"/>
<path d="M87.8907 75.2635C88.2369 76.7274 87.3306 78.1934 85.8679 78.5393C84.404 78.8855 82.938 77.9792 82.5921 76.5165C82.2459 75.0526 83.1522 73.5866 84.6149 73.2407C86.0776 72.8948 87.5448 73.8008 87.8907 75.2635Z" fill="#E03339"/>
<path d="M82.3704 71.7908C82.7166 73.2547 81.8103 74.7207 80.3476 75.0666C78.8837 75.4128 77.4177 74.5065 77.0718 73.0438C76.7256 71.5799 77.6319 70.1139 79.0946 69.768C80.557 69.4209 82.0243 70.3269 82.3704 71.7908Z" fill="#FCDD10"/>
<path d="M84.4935 80.7693C84.8397 82.2332 83.9334 83.6992 82.4707 84.0451C81.0068 84.3913 79.5408 83.485 79.1949 82.0223C78.8487 80.5584 79.755 79.0924 81.2177 78.7465C82.6801 78.3994 84.1473 79.3054 84.4935 80.7693Z" fill="#89C94E"/>
<circle cx="61.609" cy="114.263" r="9.83603" transform="rotate(-0.457124 61.609 114.263)" fill="black" stroke="white" stroke-width="0.401471"/>
<path d="M78.4852 77.4891C78.8314 78.953 77.9251 80.419 76.4624 80.7649C74.9985 81.1111 73.5325 80.2048 73.1866 78.7421C72.8404 77.2782 73.7467 75.8122 75.2094 75.4663C76.6721 75.1204 78.1393 76.0264 78.4852 77.4891Z" fill="#129AD6"/>
<path d="M87.8907 75.2644C88.2369 76.7283 87.3306 78.1944 85.8679 78.5403C84.404 78.8864 82.938 77.9802 82.5921 76.5175C82.2459 75.0536 83.1522 73.5875 84.6149 73.2416C86.0776 72.8958 87.5448 73.8018 87.8907 75.2644Z" fill="#E03339"/>
<path d="M82.3704 71.7918C82.7166 73.2557 81.8103 74.7217 80.3476 75.0676C78.8837 75.4138 77.4177 74.5075 77.0718 73.0448C76.7256 71.5809 77.6319 70.1149 79.0946 69.769C80.557 69.4219 82.0243 70.3279 82.3704 71.7918Z" fill="#F2CF8D"/>
<path d="M84.4935 80.7703C84.8397 82.2342 83.9334 83.7002 82.4707 84.0461C81.0068 84.3923 79.5408 83.486 79.1949 82.0233C78.8487 80.5594 79.755 79.0934 81.2177 78.7475C82.6801 78.4004 84.1473 79.3064 84.4935 80.7703Z" fill="#89C94E"/>
<circle cx="61.609" cy="114.263" r="9.83603" transform="rotate(-0.457124 61.609 114.263)" fill="black" stroke="white" stroke-width="0.401471"/>
<path d="M55.2397 110.017C53.3428 112.879 53.6538 116.572 55.7651 119.07C56.2151 119.608 56.7487 120.086 57.3621 120.493C58.2996 121.114 59.3272 121.5 60.3756 121.66C63.2002 122.098 66.1582 120.903 67.8393 118.367C69.7306 115.514 69.4243 111.832 67.3251 109.334C66.8713 108.79 66.3312 108.303 65.7122 107.893C62.2392 105.593 57.5413 106.545 55.2397 110.017ZM65.918 115.083C66.3651 115.379 66.4866 115.978 66.1902 116.426L65.4048 117.61C65.1103 118.055 64.5108 118.176 64.0637 117.88L62.035 116.535L60.6883 118.567C60.3937 119.011 59.7943 119.132 59.3472 118.836L58.1624 118.051C57.7181 117.756 57.5965 117.157 57.8911 116.712L59.2377 114.681L57.2062 113.334C56.7619 113.04 56.6404 112.44 56.9349 111.996L57.7203 110.811C58.0167 110.364 58.6161 110.242 59.0604 110.537L61.092 111.884L62.4368 109.855C62.7332 109.408 63.3327 109.286 63.777 109.581L64.9618 110.366C65.4089 110.663 65.5304 111.262 65.2341 111.709L63.8892 113.738L65.918 115.083Z" fill="white"/>
<path d="M25.919 54.0562C25.3601 54.1437 24.9745 54.6726 25.062 55.2315L25.6985 59.2962L25.1904 59.3758L25.5087 61.4082L27.8593 63.1222L28.0185 64.1384L31.067 63.661L30.9078 62.6448L32.6219 60.2942L32.3037 58.2619L31.7956 58.3414L31.1591 54.2767C31.0715 53.7178 30.5477 53.3314 29.9837 53.4197M26.0782 55.0724L30.1429 54.4359L30.7794 58.5006L26.7147 59.1371M26.825 56.5171L26.9841 57.5333L28.0003 57.3741L27.8411 56.358M28.8573 56.1988L29.0164 57.215L30.0326 57.0559L29.8735 56.0397L28.8573 56.1988Z" fill="#F2CF8D"/>
<g clip-path="url(#clip0_1444_25608)">
<path d="M136.709 20.7217L133.026 27.0868L128.939 23.8717L123.814 22.818L119.141 22.4508L114.218 26.1869L111.807 29.2523L111.323 34.4945L113.67 43.2865L118.194 50.1518L125.581 54.6382L133.186 60.9501L138.763 62.6904L141.057 60.1943L143.585 56.5594L146.8 52.4721L151.621 46.3411L154.165 39.7418L154.884 33.3608L154.346 27.315L150.392 20.5667L144.128 19.2788L136.709 20.7217Z" fill="url(#paint0_linear_1444_25608)" stroke="url(#paint1_linear_1444_25608)"/>
<path d="M120.31 20.6853C113.162 21.9459 108.518 29.4865 109.936 37.5277C112.504 52.0876 132.677 60.5401 138.881 65.451C143.031 58.7141 159.095 43.8706 156.527 29.3107C155.109 21.2695 148.165 15.7727 141.018 17.0333C136.774 17.7818 133.425 20.7166 131.691 24.6833C128.705 21.5491 124.554 19.9368 120.31 20.6853ZM120.824 23.5973C124.246 22.9937 127.535 24.2849 129.926 26.7949L132.549 29.546L134.072 26.0638C135.46 22.8871 138.109 20.5488 141.531 19.9453C147.28 18.9314 152.798 23.2998 153.939 29.7672C154.983 35.6883 152.126 42.3778 148.079 48.4994C144.574 53.8003 140.849 57.9747 138.215 61.6746C134.474 59.0989 129.546 56.4506 124.439 52.6686C118.541 48.3009 113.568 42.9922 112.524 37.0712C111.384 30.6037 115.075 24.6111 120.824 23.5973Z" fill="white"/>
<path d="M105.182 26.5557L95.6768 28.2319L86.1721 29.9082M121.249 65.3575L93.2935 70.2877M104.269 47.5343L89.7328 50.098" stroke="url(#paint2_linear_1444_25608)" stroke-width="1.5" stroke-linecap="round" stroke-linejoin="round"/>
</g>
<defs>
<linearGradient id="paint0_linear_1444_25608" x1="140.733" y1="13.8595" x2="108.648" y2="15.4504" gradientUnits="userSpaceOnUse">
<stop stop-color="#F9A811"/>
<stop offset="1" stop-color="#B97900"/>
</linearGradient>
<linearGradient id="paint1_linear_1444_25608" x1="140.733" y1="13.8595" x2="108.648" y2="15.4504" gradientUnits="userSpaceOnUse">
<stop stop-color="#F9A811"/>
<stop offset="1" stop-color="#B97900"/>
</linearGradient>
<linearGradient id="paint2_linear_1444_25608" x1="101.595" y1="22.7724" x2="81.6304" y2="30.0868" gradientUnits="userSpaceOnUse">
<stop stop-color="#F9A811"/>
<stop offset="1" stop-color="#B97900"/>
</linearGradient>
<clipPath id="clip0_1444_25608">
<rect width="75.6973" height="75.6973" fill="white" transform="translate(78.5 13.6465) rotate(-10.0019)"/>
</clipPath>
</defs>
</svg>
