<svg width="99" height="70" viewBox="0 0 99 70" fill="none" xmlns="http://www.w3.org/2000/svg">
<path d="M43.5283 13.9141C38.8392 13.9141 35.0283 17.7249 35.0283 22.4141V26.5082C35.0283 27.3724 34.66 28.6899 34.2208 29.4266L32.5917 32.1324C31.5858 33.8041 32.28 35.6599 34.1217 36.2832C40.2275 38.3232 46.815 38.3232 52.9208 36.2832C54.635 35.7166 55.3858 33.6907 54.4508 32.1324L52.8217 29.4266C52.3967 28.6899 52.0283 27.3724 52.0283 26.5082V22.4141C52.0283 17.7391 48.2033 13.9141 43.5283 13.9141Z" stroke="#F2CF8D" stroke-width="1.5" stroke-miterlimit="10" stroke-linecap="round"/>
<path d="M46.1491 14.325C44.436 13.8371 42.6206 13.8371 40.9075 14.325C41.3183 13.2767 42.3383 12.54 43.5283 12.54C44.7183 12.54 45.7383 13.2767 46.1491 14.325V14.325Z" stroke="#F2CF8D" stroke-width="1.5" stroke-miterlimit="10" stroke-linecap="round" stroke-linejoin="round"/>
<path d="M47.7783 36.7935C47.7783 39.131 45.8658 41.0435 43.5283 41.0435C42.3667 41.0435 41.29 40.5618 40.525 39.7968C39.729 38.9996 39.2809 37.9199 39.2783 36.7935" stroke="#F2CF8D" stroke-width="1.5" stroke-miterlimit="10"/>
<path d="M7.81856 48.1V56.5H6.53456L1.90256 50.812V56.5H0.354563V48.1H1.63856L6.27056 53.788V48.1H7.81856ZM12.8054 56.584C12.1574 56.584 11.5734 56.444 11.0534 56.164C10.5334 55.884 10.1254 55.496 9.82941 55C9.54141 54.496 9.39741 53.928 9.39741 53.296C9.39741 52.664 9.54141 52.1 9.82941 51.604C10.1254 51.108 10.5334 50.72 11.0534 50.44C11.5734 50.16 12.1574 50.02 12.8054 50.02C13.4614 50.02 14.0494 50.16 14.5694 50.44C15.0894 50.72 15.4934 51.108 15.7814 51.604C16.0774 52.1 16.2254 52.664 16.2254 53.296C16.2254 53.928 16.0774 54.496 15.7814 55C15.4934 55.496 15.0894 55.884 14.5694 56.164C14.0494 56.444 13.4614 56.584 12.8054 56.584ZM12.8054 55.3C13.3574 55.3 13.8134 55.116 14.1734 54.748C14.5334 54.38 14.7134 53.896 14.7134 53.296C14.7134 52.696 14.5334 52.212 14.1734 51.844C13.8134 51.476 13.3574 51.292 12.8054 51.292C12.2534 51.292 11.7974 51.476 11.4374 51.844C11.0854 52.212 10.9094 52.696 10.9094 53.296C10.9094 53.896 11.0854 54.38 11.4374 54.748C11.7974 55.116 12.2534 55.3 12.8054 55.3ZM21.5118 56.152C21.3358 56.296 21.1198 56.404 20.8638 56.476C20.6158 56.548 20.3518 56.584 20.0718 56.584C19.3678 56.584 18.8238 56.4 18.4398 56.032C18.0558 55.664 17.8638 55.128 17.8638 54.424V51.34H16.8078V50.14H17.8638V48.676H19.3638V50.14H21.0798V51.34H19.3638V54.388C19.3638 54.7 19.4398 54.94 19.5918 55.108C19.7438 55.268 19.9638 55.348 20.2518 55.348C20.5878 55.348 20.8678 55.26 21.0918 55.084L21.5118 56.152ZM22.7457 50.092H24.2457V56.5H22.7457V50.092ZM23.5017 49.036C23.2297 49.036 23.0017 48.952 22.8177 48.784C22.6337 48.608 22.5417 48.392 22.5417 48.136C22.5417 47.88 22.6337 47.668 22.8177 47.5C23.0017 47.324 23.2297 47.236 23.5017 47.236C23.7737 47.236 24.0017 47.32 24.1857 47.488C24.3697 47.648 24.4617 47.852 24.4617 48.1C24.4617 48.364 24.3697 48.588 24.1857 48.772C24.0097 48.948 23.7817 49.036 23.5017 49.036ZM28.8185 48.724C28.1865 48.724 27.8705 49.068 27.8705 49.756V50.14H29.6345V51.34H27.9185V56.5H26.4185V51.34H25.3625V50.14H26.4185V49.732C26.4185 49.044 26.6185 48.504 27.0185 48.112C27.4185 47.712 27.9825 47.512 28.7105 47.512C29.2865 47.512 29.7385 47.628 30.0665 47.86L29.6465 48.988C29.3905 48.812 29.1145 48.724 28.8185 48.724ZM31.6025 50.092H33.1025V56.5H31.6025V50.092ZM32.3585 49.036C32.0865 49.036 31.8585 48.952 31.6745 48.784C31.4905 48.608 31.3985 48.392 31.3985 48.136C31.3985 47.88 31.4905 47.668 31.6745 47.5C31.8585 47.324 32.0865 47.236 32.3585 47.236C32.6305 47.236 32.8585 47.32 33.0425 47.488C33.2265 47.648 33.3185 47.852 33.3185 48.1C33.3185 48.364 33.2265 48.588 33.0425 48.772C32.8665 48.948 32.6385 49.036 32.3585 49.036ZM38.0138 56.584C37.3498 56.584 36.7538 56.444 36.2258 56.164C35.6978 55.884 35.2858 55.496 34.9898 55C34.6938 54.496 34.5458 53.928 34.5458 53.296C34.5458 52.664 34.6938 52.1 34.9898 51.604C35.2858 51.108 35.6938 50.72 36.2138 50.44C36.7418 50.16 37.3418 50.02 38.0138 50.02C38.6458 50.02 39.1978 50.148 39.6698 50.404C40.1498 50.66 40.5098 51.028 40.7498 51.508L39.5978 52.18C39.4138 51.884 39.1818 51.664 38.9018 51.52C38.6298 51.368 38.3298 51.292 38.0018 51.292C37.4418 51.292 36.9778 51.476 36.6098 51.844C36.2418 52.204 36.0578 52.688 36.0578 53.296C36.0578 53.904 36.2378 54.392 36.5978 54.76C36.9658 55.12 37.4338 55.3 38.0018 55.3C38.3298 55.3 38.6298 55.228 38.9018 55.084C39.1818 54.932 39.4138 54.708 39.5978 54.412L40.7498 55.084C40.5018 55.564 40.1378 55.936 39.6578 56.2C39.1858 56.456 38.6378 56.584 38.0138 56.584ZM44.4945 50.02C45.4385 50.02 46.1585 50.248 46.6545 50.704C47.1585 51.152 47.4105 51.832 47.4105 52.744V56.5H45.9945V55.72C45.8105 56 45.5465 56.216 45.2025 56.368C44.8665 56.512 44.4585 56.584 43.9785 56.584C43.4985 56.584 43.0785 56.504 42.7185 56.344C42.3585 56.176 42.0785 55.948 41.8785 55.66C41.6865 55.364 41.5905 55.032 41.5905 54.664C41.5905 54.088 41.8025 53.628 42.2265 53.284C42.6585 52.932 43.3345 52.756 44.2545 52.756H45.9105V52.66C45.9105 52.212 45.7745 51.868 45.5025 51.628C45.2385 51.388 44.8425 51.268 44.3145 51.268C43.9545 51.268 43.5985 51.324 43.2465 51.436C42.9025 51.548 42.6105 51.704 42.3705 51.904L41.7825 50.812C42.1185 50.556 42.5225 50.36 42.9945 50.224C43.4665 50.088 43.9665 50.02 44.4945 50.02ZM44.2905 55.492C44.6665 55.492 44.9985 55.408 45.2865 55.24C45.5825 55.064 45.7905 54.816 45.9105 54.496V53.752H44.3625C43.4985 53.752 43.0665 54.036 43.0665 54.604C43.0665 54.876 43.1745 55.092 43.3905 55.252C43.6065 55.412 43.9065 55.492 44.2905 55.492ZM52.3342 56.584C51.6702 56.584 51.0742 56.444 50.5462 56.164C50.0182 55.884 49.6062 55.496 49.3102 55C49.0142 54.496 48.8662 53.928 48.8662 53.296C48.8662 52.664 49.0142 52.1 49.3102 51.604C49.6062 51.108 50.0142 50.72 50.5342 50.44C51.0622 50.16 51.6622 50.02 52.3342 50.02C52.9662 50.02 53.5182 50.148 53.9902 50.404C54.4702 50.66 54.8302 51.028 55.0702 51.508L53.9182 52.18C53.7342 51.884 53.5022 51.664 53.2222 51.52C52.9502 51.368 52.6502 51.292 52.3222 51.292C51.7622 51.292 51.2982 51.476 50.9302 51.844C50.5622 52.204 50.3782 52.688 50.3782 53.296C50.3782 53.904 50.5582 54.392 50.9182 54.76C51.2862 55.12 51.7542 55.3 52.3222 55.3C52.6502 55.3 52.9502 55.228 53.2222 55.084C53.5022 54.932 53.7342 54.708 53.9182 54.412L55.0702 55.084C54.8222 55.564 54.4582 55.936 53.9782 56.2C53.5062 56.456 52.9582 56.584 52.3342 56.584ZM56.3668 50.092H57.8668V56.5H56.3668V50.092ZM57.1228 49.036C56.8508 49.036 56.6228 48.952 56.4388 48.784C56.2548 48.608 56.1628 48.392 56.1628 48.136C56.1628 47.88 56.2548 47.668 56.4388 47.5C56.6228 47.324 56.8508 47.236 57.1228 47.236C57.3948 47.236 57.6228 47.32 57.8068 47.488C57.9908 47.648 58.0828 47.852 58.0828 48.1C58.0828 48.364 57.9908 48.588 57.8068 48.772C57.6308 48.948 57.4028 49.036 57.1228 49.036ZM62.7156 56.584C62.0676 56.584 61.4836 56.444 60.9636 56.164C60.4436 55.884 60.0356 55.496 59.7396 55C59.4516 54.496 59.3076 53.928 59.3076 53.296C59.3076 52.664 59.4516 52.1 59.7396 51.604C60.0356 51.108 60.4436 50.72 60.9636 50.44C61.4836 50.16 62.0676 50.02 62.7156 50.02C63.3716 50.02 63.9596 50.16 64.4796 50.44C64.9996 50.72 65.4036 51.108 65.6916 51.604C65.9876 52.1 66.1356 52.664 66.1356 53.296C66.1356 53.928 65.9876 54.496 65.6916 55C65.4036 55.496 64.9996 55.884 64.4796 56.164C63.9596 56.444 63.3716 56.584 62.7156 56.584ZM62.7156 55.3C63.2676 55.3 63.7236 55.116 64.0836 54.748C64.4436 54.38 64.6236 53.896 64.6236 53.296C64.6236 52.696 64.4436 52.212 64.0836 51.844C63.7236 51.476 63.2676 51.292 62.7156 51.292C62.1636 51.292 61.7076 51.476 61.3476 51.844C60.9956 52.212 60.8196 52.696 60.8196 53.296C60.8196 53.896 60.9956 54.38 61.3476 54.748C61.7076 55.116 62.1636 55.3 62.7156 55.3ZM71.2059 50.02C72.0139 50.02 72.6619 50.256 73.1499 50.728C73.6379 51.2 73.8819 51.9 73.8819 52.828V56.5H72.3819V53.02C72.3819 52.46 72.2499 52.04 71.9859 51.76C71.7219 51.472 71.3459 51.328 70.8579 51.328C70.3059 51.328 69.8699 51.496 69.5499 51.832C69.2299 52.16 69.0699 52.636 69.0699 53.26V56.5H67.5699V50.092H68.9979V50.92C69.2459 50.624 69.5579 50.4 69.9339 50.248C70.3099 50.096 70.7339 50.02 71.2059 50.02ZM81.8674 53.332C81.8674 53.436 81.8594 53.584 81.8434 53.776H76.8154C76.9034 54.248 77.1314 54.624 77.4994 54.904C77.8754 55.176 78.3394 55.312 78.8914 55.312C79.5954 55.312 80.1754 55.08 80.6314 54.616L81.4354 55.54C81.1474 55.884 80.7834 56.144 80.3434 56.32C79.9034 56.496 79.4074 56.584 78.8554 56.584C78.1514 56.584 77.5314 56.444 76.9954 56.164C76.4594 55.884 76.0434 55.496 75.7474 55C75.4594 54.496 75.3154 53.928 75.3154 53.296C75.3154 52.672 75.4554 52.112 75.7354 51.616C76.0234 51.112 76.4194 50.72 76.9234 50.44C77.4274 50.16 77.9954 50.02 78.6274 50.02C79.2514 50.02 79.8074 50.16 80.2954 50.44C80.7914 50.712 81.1754 51.1 81.4474 51.604C81.7274 52.1 81.8674 52.676 81.8674 53.332ZM78.6274 51.22C78.1474 51.22 77.7394 51.364 77.4034 51.652C77.0754 51.932 76.8754 52.308 76.8034 52.78H80.4394C80.3754 52.316 80.1794 51.94 79.8514 51.652C79.5234 51.364 79.1154 51.22 78.6274 51.22ZM85.2882 56.584C84.7682 56.584 84.2602 56.516 83.7642 56.38C83.2682 56.244 82.8722 56.072 82.5762 55.864L83.1522 54.724C83.4402 54.916 83.7842 55.072 84.1842 55.192C84.5922 55.304 84.9922 55.36 85.3842 55.36C86.2802 55.36 86.7282 55.124 86.7282 54.652C86.7282 54.428 86.6122 54.272 86.3802 54.184C86.1562 54.096 85.7922 54.012 85.2882 53.932C84.7602 53.852 84.3282 53.76 83.9922 53.656C83.6642 53.552 83.3762 53.372 83.1282 53.116C82.8882 52.852 82.7682 52.488 82.7682 52.024C82.7682 51.416 83.0202 50.932 83.5242 50.572C84.0362 50.204 84.7242 50.02 85.5882 50.02C86.0282 50.02 86.4682 50.072 86.9082 50.176C87.3482 50.272 87.7082 50.404 87.9882 50.572L87.4122 51.712C86.8682 51.392 86.2562 51.232 85.5762 51.232C85.1362 51.232 84.8002 51.3 84.5682 51.436C84.3442 51.564 84.2322 51.736 84.2322 51.952C84.2322 52.192 84.3522 52.364 84.5922 52.468C84.8402 52.564 85.2202 52.656 85.7322 52.744C86.2442 52.824 86.6642 52.916 86.9922 53.02C87.3202 53.124 87.6002 53.3 87.8322 53.548C88.0722 53.796 88.1922 54.148 88.1922 54.604C88.1922 55.204 87.9322 55.684 87.4122 56.044C86.8922 56.404 86.1842 56.584 85.2882 56.584Z" fill="#F2CF8D"/>
<line x1="96.5" y1="70" x2="96.5" y2="-1.09278e-07" stroke="#F2CF8D" stroke-width="5"/>
</svg>
