<svg width="99" height="70" viewBox="0 0 99 70" fill="none" xmlns="http://www.w3.org/2000/svg">
<path d="M43.5201 17.9099C40.2101 17.9099 37.5201 20.5999 37.5201 23.9099V26.7999C37.5201 27.4099 37.2601 28.3399 36.9501 28.8599L35.8001 30.7699C35.0901 31.9499 35.5801 33.2599 36.8801 33.6999C41.1901 35.1399 45.8401 35.1399 50.1501 33.6999C51.3601 33.2999 51.8901 31.8699 51.2301 30.7699L50.0801 28.8599C49.7801 28.3399 49.5201 27.4099 49.5201 26.7999V23.9099C49.5201 20.6099 46.8201 17.9099 43.5201 17.9099Z" stroke="white" stroke-width="1.5" stroke-miterlimit="10" stroke-linecap="round"/>
<path d="M45.3699 18.1999C44.1606 17.8555 42.8792 17.8555 41.6699 18.1999C41.9599 17.4599 42.6799 16.9399 43.5199 16.9399C44.3599 16.9399 45.0799 17.4599 45.3699 18.1999V18.1999Z" stroke="white" stroke-width="1.5" stroke-miterlimit="10" stroke-linecap="round" stroke-linejoin="round"/>
<path d="M46.52 34.0601C46.52 35.7101 45.17 37.0601 43.52 37.0601C42.7 37.0601 41.94 36.7201 41.4 36.1801C40.8382 35.6174 40.5218 34.8552 40.52 34.0601" stroke="white" stroke-width="1.5" stroke-miterlimit="10"/>
<path d="M7.81856 43.1V51.5H6.53456L1.90256 45.812V51.5H0.354563V43.1H1.63856L6.27056 48.788V43.1H7.81856ZM12.8054 51.584C12.1574 51.584 11.5734 51.444 11.0534 51.164C10.5334 50.884 10.1254 50.496 9.82941 50C9.54141 49.496 9.39741 48.928 9.39741 48.296C9.39741 47.664 9.54141 47.1 9.82941 46.604C10.1254 46.108 10.5334 45.72 11.0534 45.44C11.5734 45.16 12.1574 45.02 12.8054 45.02C13.4614 45.02 14.0494 45.16 14.5694 45.44C15.0894 45.72 15.4934 46.108 15.7814 46.604C16.0774 47.1 16.2254 47.664 16.2254 48.296C16.2254 48.928 16.0774 49.496 15.7814 50C15.4934 50.496 15.0894 50.884 14.5694 51.164C14.0494 51.444 13.4614 51.584 12.8054 51.584ZM12.8054 50.3C13.3574 50.3 13.8134 50.116 14.1734 49.748C14.5334 49.38 14.7134 48.896 14.7134 48.296C14.7134 47.696 14.5334 47.212 14.1734 46.844C13.8134 46.476 13.3574 46.292 12.8054 46.292C12.2534 46.292 11.7974 46.476 11.4374 46.844C11.0854 47.212 10.9094 47.696 10.9094 48.296C10.9094 48.896 11.0854 49.38 11.4374 49.748C11.7974 50.116 12.2534 50.3 12.8054 50.3ZM21.5118 51.152C21.3358 51.296 21.1198 51.404 20.8638 51.476C20.6158 51.548 20.3518 51.584 20.0718 51.584C19.3678 51.584 18.8238 51.4 18.4398 51.032C18.0558 50.664 17.8638 50.128 17.8638 49.424V46.34H16.8078V45.14H17.8638V43.676H19.3638V45.14H21.0798V46.34H19.3638V49.388C19.3638 49.7 19.4398 49.94 19.5918 50.108C19.7438 50.268 19.9638 50.348 20.2518 50.348C20.5878 50.348 20.8678 50.26 21.0918 50.084L21.5118 51.152ZM22.7457 45.092H24.2457V51.5H22.7457V45.092ZM23.5017 44.036C23.2297 44.036 23.0017 43.952 22.8177 43.784C22.6337 43.608 22.5417 43.392 22.5417 43.136C22.5417 42.88 22.6337 42.668 22.8177 42.5C23.0017 42.324 23.2297 42.236 23.5017 42.236C23.7737 42.236 24.0017 42.32 24.1857 42.488C24.3697 42.648 24.4617 42.852 24.4617 43.1C24.4617 43.364 24.3697 43.588 24.1857 43.772C24.0097 43.948 23.7817 44.036 23.5017 44.036ZM28.8185 43.724C28.1865 43.724 27.8705 44.068 27.8705 44.756V45.14H29.6345V46.34H27.9185V51.5H26.4185V46.34H25.3625V45.14H26.4185V44.732C26.4185 44.044 26.6185 43.504 27.0185 43.112C27.4185 42.712 27.9825 42.512 28.7105 42.512C29.2865 42.512 29.7385 42.628 30.0665 42.86L29.6465 43.988C29.3905 43.812 29.1145 43.724 28.8185 43.724ZM31.6025 45.092H33.1025V51.5H31.6025V45.092ZM32.3585 44.036C32.0865 44.036 31.8585 43.952 31.6745 43.784C31.4905 43.608 31.3985 43.392 31.3985 43.136C31.3985 42.88 31.4905 42.668 31.6745 42.5C31.8585 42.324 32.0865 42.236 32.3585 42.236C32.6305 42.236 32.8585 42.32 33.0425 42.488C33.2265 42.648 33.3185 42.852 33.3185 43.1C33.3185 43.364 33.2265 43.588 33.0425 43.772C32.8665 43.948 32.6385 44.036 32.3585 44.036ZM38.0138 51.584C37.3498 51.584 36.7538 51.444 36.2258 51.164C35.6978 50.884 35.2858 50.496 34.9898 50C34.6938 49.496 34.5458 48.928 34.5458 48.296C34.5458 47.664 34.6938 47.1 34.9898 46.604C35.2858 46.108 35.6938 45.72 36.2138 45.44C36.7418 45.16 37.3418 45.02 38.0138 45.02C38.6458 45.02 39.1978 45.148 39.6698 45.404C40.1498 45.66 40.5098 46.028 40.7498 46.508L39.5978 47.18C39.4138 46.884 39.1818 46.664 38.9018 46.52C38.6298 46.368 38.3298 46.292 38.0018 46.292C37.4418 46.292 36.9778 46.476 36.6098 46.844C36.2418 47.204 36.0578 47.688 36.0578 48.296C36.0578 48.904 36.2378 49.392 36.5978 49.76C36.9658 50.12 37.4338 50.3 38.0018 50.3C38.3298 50.3 38.6298 50.228 38.9018 50.084C39.1818 49.932 39.4138 49.708 39.5978 49.412L40.7498 50.084C40.5018 50.564 40.1378 50.936 39.6578 51.2C39.1858 51.456 38.6378 51.584 38.0138 51.584ZM44.4945 45.02C45.4385 45.02 46.1585 45.248 46.6545 45.704C47.1585 46.152 47.4105 46.832 47.4105 47.744V51.5H45.9945V50.72C45.8105 51 45.5465 51.216 45.2025 51.368C44.8665 51.512 44.4585 51.584 43.9785 51.584C43.4985 51.584 43.0785 51.504 42.7185 51.344C42.3585 51.176 42.0785 50.948 41.8785 50.66C41.6865 50.364 41.5905 50.032 41.5905 49.664C41.5905 49.088 41.8025 48.628 42.2265 48.284C42.6585 47.932 43.3345 47.756 44.2545 47.756H45.9105V47.66C45.9105 47.212 45.7745 46.868 45.5025 46.628C45.2385 46.388 44.8425 46.268 44.3145 46.268C43.9545 46.268 43.5985 46.324 43.2465 46.436C42.9025 46.548 42.6105 46.704 42.3705 46.904L41.7825 45.812C42.1185 45.556 42.5225 45.36 42.9945 45.224C43.4665 45.088 43.9665 45.02 44.4945 45.02ZM44.2905 50.492C44.6665 50.492 44.9985 50.408 45.2865 50.24C45.5825 50.064 45.7905 49.816 45.9105 49.496V48.752H44.3625C43.4985 48.752 43.0665 49.036 43.0665 49.604C43.0665 49.876 43.1745 50.092 43.3905 50.252C43.6065 50.412 43.9065 50.492 44.2905 50.492ZM52.3342 51.584C51.6702 51.584 51.0742 51.444 50.5462 51.164C50.0182 50.884 49.6062 50.496 49.3102 50C49.0142 49.496 48.8662 48.928 48.8662 48.296C48.8662 47.664 49.0142 47.1 49.3102 46.604C49.6062 46.108 50.0142 45.72 50.5342 45.44C51.0622 45.16 51.6622 45.02 52.3342 45.02C52.9662 45.02 53.5182 45.148 53.9902 45.404C54.4702 45.66 54.8302 46.028 55.0702 46.508L53.9182 47.18C53.7342 46.884 53.5022 46.664 53.2222 46.52C52.9502 46.368 52.6502 46.292 52.3222 46.292C51.7622 46.292 51.2982 46.476 50.9302 46.844C50.5622 47.204 50.3782 47.688 50.3782 48.296C50.3782 48.904 50.5582 49.392 50.9182 49.76C51.2862 50.12 51.7542 50.3 52.3222 50.3C52.6502 50.3 52.9502 50.228 53.2222 50.084C53.5022 49.932 53.7342 49.708 53.9182 49.412L55.0702 50.084C54.8222 50.564 54.4582 50.936 53.9782 51.2C53.5062 51.456 52.9582 51.584 52.3342 51.584ZM56.3668 45.092H57.8668V51.5H56.3668V45.092ZM57.1228 44.036C56.8508 44.036 56.6228 43.952 56.4388 43.784C56.2548 43.608 56.1628 43.392 56.1628 43.136C56.1628 42.88 56.2548 42.668 56.4388 42.5C56.6228 42.324 56.8508 42.236 57.1228 42.236C57.3948 42.236 57.6228 42.32 57.8068 42.488C57.9908 42.648 58.0828 42.852 58.0828 43.1C58.0828 43.364 57.9908 43.588 57.8068 43.772C57.6308 43.948 57.4028 44.036 57.1228 44.036ZM62.7156 51.584C62.0676 51.584 61.4836 51.444 60.9636 51.164C60.4436 50.884 60.0356 50.496 59.7396 50C59.4516 49.496 59.3076 48.928 59.3076 48.296C59.3076 47.664 59.4516 47.1 59.7396 46.604C60.0356 46.108 60.4436 45.72 60.9636 45.44C61.4836 45.16 62.0676 45.02 62.7156 45.02C63.3716 45.02 63.9596 45.16 64.4796 45.44C64.9996 45.72 65.4036 46.108 65.6916 46.604C65.9876 47.1 66.1356 47.664 66.1356 48.296C66.1356 48.928 65.9876 49.496 65.6916 50C65.4036 50.496 64.9996 50.884 64.4796 51.164C63.9596 51.444 63.3716 51.584 62.7156 51.584ZM62.7156 50.3C63.2676 50.3 63.7236 50.116 64.0836 49.748C64.4436 49.38 64.6236 48.896 64.6236 48.296C64.6236 47.696 64.4436 47.212 64.0836 46.844C63.7236 46.476 63.2676 46.292 62.7156 46.292C62.1636 46.292 61.7076 46.476 61.3476 46.844C60.9956 47.212 60.8196 47.696 60.8196 48.296C60.8196 48.896 60.9956 49.38 61.3476 49.748C61.7076 50.116 62.1636 50.3 62.7156 50.3ZM71.2059 45.02C72.0139 45.02 72.6619 45.256 73.1499 45.728C73.6379 46.2 73.8819 46.9 73.8819 47.828V51.5H72.3819V48.02C72.3819 47.46 72.2499 47.04 71.9859 46.76C71.7219 46.472 71.3459 46.328 70.8579 46.328C70.3059 46.328 69.8699 46.496 69.5499 46.832C69.2299 47.16 69.0699 47.636 69.0699 48.26V51.5H67.5699V45.092H68.9979V45.92C69.2459 45.624 69.5579 45.4 69.9339 45.248C70.3099 45.096 70.7339 45.02 71.2059 45.02ZM81.8674 48.332C81.8674 48.436 81.8594 48.584 81.8434 48.776H76.8154C76.9034 49.248 77.1314 49.624 77.4994 49.904C77.8754 50.176 78.3394 50.312 78.8914 50.312C79.5954 50.312 80.1754 50.08 80.6314 49.616L81.4354 50.54C81.1474 50.884 80.7834 51.144 80.3434 51.32C79.9034 51.496 79.4074 51.584 78.8554 51.584C78.1514 51.584 77.5314 51.444 76.9954 51.164C76.4594 50.884 76.0434 50.496 75.7474 50C75.4594 49.496 75.3154 48.928 75.3154 48.296C75.3154 47.672 75.4554 47.112 75.7354 46.616C76.0234 46.112 76.4194 45.72 76.9234 45.44C77.4274 45.16 77.9954 45.02 78.6274 45.02C79.2514 45.02 79.8074 45.16 80.2954 45.44C80.7914 45.712 81.1754 46.1 81.4474 46.604C81.7274 47.1 81.8674 47.676 81.8674 48.332ZM78.6274 46.22C78.1474 46.22 77.7394 46.364 77.4034 46.652C77.0754 46.932 76.8754 47.308 76.8034 47.78H80.4394C80.3754 47.316 80.1794 46.94 79.8514 46.652C79.5234 46.364 79.1154 46.22 78.6274 46.22ZM85.2882 51.584C84.7682 51.584 84.2602 51.516 83.7642 51.38C83.2682 51.244 82.8722 51.072 82.5762 50.864L83.1522 49.724C83.4402 49.916 83.7842 50.072 84.1842 50.192C84.5922 50.304 84.9922 50.36 85.3842 50.36C86.2802 50.36 86.7282 50.124 86.7282 49.652C86.7282 49.428 86.6122 49.272 86.3802 49.184C86.1562 49.096 85.7922 49.012 85.2882 48.932C84.7602 48.852 84.3282 48.76 83.9922 48.656C83.6642 48.552 83.3762 48.372 83.1282 48.116C82.8882 47.852 82.7682 47.488 82.7682 47.024C82.7682 46.416 83.0202 45.932 83.5242 45.572C84.0362 45.204 84.7242 45.02 85.5882 45.02C86.0282 45.02 86.4682 45.072 86.9082 45.176C87.3482 45.272 87.7082 45.404 87.9882 45.572L87.4122 46.712C86.8682 46.392 86.2562 46.232 85.5762 46.232C85.1362 46.232 84.8002 46.3 84.5682 46.436C84.3442 46.564 84.2322 46.736 84.2322 46.952C84.2322 47.192 84.3522 47.364 84.5922 47.468C84.8402 47.564 85.2202 47.656 85.7322 47.744C86.2442 47.824 86.6642 47.916 86.9922 48.02C87.3202 48.124 87.6002 48.3 87.8322 48.548C88.0722 48.796 88.1922 49.148 88.1922 49.604C88.1922 50.204 87.9322 50.684 87.4122 51.044C86.8922 51.404 86.1842 51.584 85.2882 51.584Z" fill="white"/>
</svg>
