<svg width="35" height="35" viewBox="0 0 35 35" fill="none" xmlns="http://www.w3.org/2000/svg">
<path d="M17.5283 3.91406C12.8392 3.91406 9.02834 7.7249 9.02834 12.4141V16.5082C9.02834 17.3724 8.66 18.6899 8.22084 19.4266L6.59167 22.1324C5.58584 23.8041 6.28 25.6599 8.12167 26.2832C14.2275 28.3232 20.815 28.3232 26.9208 26.2832C28.635 25.7166 29.3858 23.6907 28.4508 22.1324L26.8217 19.4266C26.3967 18.6899 26.0283 17.3724 26.0283 16.5082V12.4141C26.0283 7.73906 22.2033 3.91406 17.5283 3.91406Z" stroke="#F2CF8D" stroke-width="1.5" stroke-miterlimit="10" stroke-linecap="round"/>
<path d="M20.1491 4.32504C18.436 3.83712 16.6206 3.83712 14.9075 4.32504C15.3183 3.27671 16.3383 2.54004 17.5283 2.54004C18.7183 2.54004 19.7383 3.27671 20.1491 4.32504V4.32504Z" stroke="#F2CF8D" stroke-width="1.5" stroke-miterlimit="10" stroke-linecap="round" stroke-linejoin="round"/>
<path d="M21.7783 26.7935C21.7783 29.131 19.8658 31.0435 17.5283 31.0435C16.3667 31.0435 15.29 30.5618 14.525 29.7968C13.729 28.9996 13.2809 27.9199 13.2783 26.7935" stroke="#F2CF8D" stroke-width="1.5" stroke-miterlimit="10"/>
</svg>
